<?xml version="1.0" standalone="no"?>
<!DOCTYPE svg PUBLIC "-//W3C//DTD SVG 20010904//EN"
 "http://www.w3.org/TR/2001/REC-SVG-20010904/DTD/svg10.dtd">
<svg version="1.0" xmlns="http://www.w3.org/2000/svg"
 width="450.000000pt" height="300.000000pt" viewBox="0 0 450.000000 300.000000"
 preserveAspectRatio="xMidYMid meet">

<g transform="translate(0.000000,300.000000) scale(0.100000,-0.100000)"
fill="#000000" stroke="none">
<path d="M2672 2855 c-11 -13 -10 -16 3 -21 8 -4 24 -4 35 -1 10 3 21 -1 24
-8 4 -10 43 -14 165 -15 89 0 167 -1 174 -1 6 0 55 3 107 7 112 8 142 19 82
29 -23 3 -45 4 -51 1 -5 -3 -20 0 -33 7 -22 11 -121 13 -333 5 -22 0 -67 2
-100 6 -47 5 -63 3 -73 -9z"/>
<path d="M3528 2857 c-47 -6 -68 -14 -68 -23 0 -8 5 -14 10 -14 6 0 10 -9 10
-20 0 -28 45 -37 146 -29 59 5 89 12 97 22 7 9 36 22 65 29 28 7 52 18 52 23
1 23 -183 31 -312 12z m192 -22 c0 -18 -61 -37 -97 -31 -15 2 -39 5 -52 5 -39
1 -15 15 57 32 71 16 92 15 92 -6z"/>
<path d="M2710 2810 c-13 -8 -12 -10 3 -10 9 0 17 5 17 10 0 12 -1 12 -20 0z"/>
<path d="M1715 2748 c-44 -15 -81 -28 -81 -28 -1 0 -4 -9 -7 -20 -4 -14 0 -20
12 -20 9 0 21 4 27 9 5 5 38 15 74 21 100 18 133 28 160 50 l25 20 -65 -2
c-39 -2 -97 -14 -145 -30z"/>
<path d="M2427 2753 c-13 -13 -30 -17 -75 -14 -133 8 -428 -2 -441 -14 -14
-15 25 -20 152 -22 161 -2 434 11 444 21 4 3 -3 15 -15 26 -14 13 -23 16 -28
9 -5 -8 -8 -8 -13 0 -5 7 -13 5 -24 -6z"/>
<path d="M4158 2755 c-2 -2 -32 -5 -67 -6 -45 -2 -69 -8 -84 -21 l-22 -19 23
6 c13 4 22 2 22 -5 0 -6 5 -8 10 -5 6 4 19 4 28 0 16 -7 78 -7 167 1 22 2 55
3 74 3 18 0 50 6 69 12 32 11 34 13 16 20 -22 8 -229 20 -236 14z"/>
<path d="M1458 2661 c2 -38 0 -71 -6 -75 -6 -3 -6 -25 0 -58 5 -29 6 -132 3
-228 -3 -96 -8 -335 -11 -530 -3 -195 -7 -385 -9 -422 -4 -60 5 -93 18 -71 7
12 17 582 17 961 0 239 3 332 11 332 8 0 8 5 -1 15 -9 11 -11 36 -8 80 4 47 2
65 -6 65 -9 0 -11 -19 -8 -69z"/>
<path d="M4105 2651 c-23 -3 -35 -9 -29 -13 7 -5 33 -5 59 -1 30 4 42 9 33 14
-7 5 -15 8 -18 7 -3 0 -23 -4 -45 -7z"/>
<path d="M2943 2603 c15 -2 39 -2 55 0 15 2 2 4 -28 4 -30 0 -43 -2 -27 -4z"/>
<path d="M4298 2522 c-45 -9 -8 -17 92 -20 83 -2 110 1 110 10 0 10 -25 13
-93 14 -50 0 -100 -2 -109 -4z"/>
<path d="M4145 2480 c-3 -4 2 -11 11 -14 20 -8 79 -8 71 0 -10 11 -77 22 -82
14z"/>
<path d="M3450 2466 l-35 -13 50 -5 c28 -3 59 0 70 5 19 10 19 10 0 18 -28 11
-44 10 -85 -5z"/>
<path d="M3850 2471 c-52 -6 -53 -7 -28 -18 36 -16 223 -16 237 1 8 9 -3 12
-47 14 -31 1 -68 4 -82 5 -14 2 -50 1 -80 -2z"/>
<path d="M4240 2460 c0 -5 5 -10 11 -10 5 0 7 5 4 10 -3 6 -8 10 -11 10 -2 0
-4 -4 -4 -10z"/>
<path d="M900 2339 c-1 -2 -3 -110 -6 -239 -3 -137 -10 -244 -16 -257 -6 -12
-7 -30 -3 -40 5 -10 8 -24 8 -30 0 -7 -1 -73 -2 -147 l-1 -134 -24 2 c-13 0
-22 4 -20 8 3 4 -12 12 -33 17 -50 14 -53 14 -53 -4 0 -9 -11 -27 -25 -41 -14
-14 -25 -29 -25 -33 0 -5 -7 -11 -15 -15 -19 -7 -21 30 -2 38 6 3 2 3 -10 0
-24 -5 -33 11 -11 18 20 7 -19 58 -43 58 -14 0 -19 -5 -16 -14 3 -8 0 -20 -8
-26 -21 -17 -8 -38 21 -32 28 5 30 0 8 -22 -8 -9 -11 -16 -5 -16 6 0 11 -16
11 -36 0 -19 -4 -33 -8 -30 -5 3 -9 -1 -9 -9 0 -20 13 -19 21 1 3 9 11 12 18
8 10 -6 10 -4 0 8 -9 11 -10 18 -2 23 6 3 8 11 5 16 -10 15 29 -3 43 -20 7 -9
11 -11 10 -6 -5 18 45 95 61 95 13 -1 13 -2 -1 -11 -10 -5 -18 -18 -18 -27 0
-10 -6 -24 -12 -32 -11 -12 -10 -12 5 -1 15 12 17 11 17 -4 0 -9 6 -15 13 -13
6 3 12 16 12 29 0 14 -5 23 -12 22 -7 -2 -13 2 -13 8 0 6 7 8 15 5 9 -3 18 1
22 9 4 11 16 14 40 12 l36 -4 -2 -101 c-1 -66 2 -102 8 -102 6 0 11 -4 11 -10
0 -5 -10 -9 -22 -8 -13 1 -34 -2 -48 -7 -22 -7 -23 -6 -11 9 12 14 11 16 -6
16 -14 0 -19 -6 -17 -22 1 -13 3 -33 3 -46 1 -22 3 -23 64 -16 60 6 113 23 77
24 -33 1 -43 16 -29 41 7 13 12 27 11 31 -1 3 13 2 31 -3 21 -6 33 -6 35 1 2
5 13 10 25 9 22 0 22 0 -1 -9 -19 -8 -21 -13 -12 -29 6 -11 9 -26 8 -33 -3
-13 10 -13 79 -2 39 6 50 34 27 69 -13 20 -14 28 -4 40 7 8 20 15 29 15 30 0
41 -21 34 -67 l-6 -44 29 7 c38 9 37 7 25 49 -9 33 -8 35 10 30 17 -6 19 -1
19 49 0 31 -4 56 -10 56 -5 0 -10 -18 -10 -39 0 -22 -5 -43 -12 -47 -6 -4 -8
-3 -5 2 3 6 8 82 11 169 3 88 9 215 12 281 l6 121 -66 8 c-68 7 -106 1 -106
-17 0 -6 -6 -6 -15 2 -19 16 -20 -3 -2 -22 7 -7 12 -29 11 -48 -2 -19 -5 -102
-8 -185 -7 -204 -4 -195 -82 -193 -75 2 -69 -18 -64 193 2 106 6 142 16 148
19 11 18 53 -2 61 -14 6 -15 23 -10 154 10 217 11 320 3 328 -4 4 -7 5 -7 3z
m-263 -831 c-3 -8 -6 -5 -6 6 -1 11 2 17 5 13 3 -3 4 -12 1 -19z m293 -138 c0
-32 -5 -62 -11 -65 -7 -5 -9 16 -8 64 2 84 19 85 19 1z m100 12 c0 -59 -6 -75
-28 -80 -9 -1 -11 2 -6 10 19 30 12 124 -8 112 -6 -4 -8 -3 -5 2 3 5 15 10 26
11 19 2 21 -4 21 -55z m-63 -78 c-3 -3 -12 -4 -19 -1 -8 3 -5 6 6 6 11 1 17
-2 13 -5z m-127 -99 c0 -1 -8 -5 -18 -7 -11 -3 -19 0 -19 7 0 7 8 10 19 7 10
-2 18 -6 18 -7z"/>
<path d="M930 2225 c0 -17 22 -29 41 -23 8 3 6 9 -5 21 -22 21 -36 22 -36 2z"/>
<path d="M960 2124 c0 -17 7 -37 15 -44 23 -19 24 -9 4 35 l-18 40 -1 -31z"/>
<path d="M982 2012 c-12 -36 -7 -45 19 -31 23 12 23 19 6 44 -13 17 -15 16
-25 -13z"/>
<path d="M1020 1951 c0 -5 5 -13 10 -16 6 -3 10 -2 10 4 0 5 -4 13 -10 16 -5
3 -10 2 -10 -4z"/>
<path d="M512 1515 c-34 -18 -35 -23 -7 -19 22 2 24 0 14 -12 -8 -10 -21 -13
-36 -9 -15 3 -23 1 -23 -7 0 -10 -3 -9 -9 1 -6 9 -15 11 -27 6 -11 -5 -23 -7
-28 -6 -5 1 -6 -5 -3 -12 4 -12 -1 -13 -31 -6 -34 7 -51 0 -52 -22 0 -8 42 -5
57 4 7 4 14 -1 18 -13 5 -17 10 -19 21 -9 8 6 14 8 14 3 0 -5 5 -2 10 6 8 13
11 13 19 1 5 -7 14 -10 20 -6 7 4 18 1 26 -5 8 -7 21 -10 29 -7 8 3 20 -2 28
-11 12 -15 11 -16 -4 -4 -15 12 -17 11 -16 -5 3 -33 -12 -74 -24 -67 -6 4 -8
3 -5 -4 10 -15 -3 -42 -18 -42 -10 0 -14 -14 -14 -47 1 -27 -1 -55 -3 -63 -2
-11 8 -16 44 -18 34 -2 48 -8 51 -20 4 -16 5 -16 6 1 1 19 26 23 36 6 4 -6 13
-8 21 -5 8 3 14 0 14 -5 0 -7 9 -9 23 -5 50 15 57 14 78 -12 12 -15 19 -19 16
-10 -7 19 16 48 38 48 9 0 13 -18 14 -65 1 -51 -2 -65 -14 -65 -8 0 -15 6 -16
13 0 6 -5 1 -10 -13 -8 -18 -12 -21 -18 -11 -7 11 -9 11 -13 0 -3 -8 -9 -9
-18 -4 -8 5 -21 10 -30 11 -8 1 -19 2 -25 4 -23 6 -55 -1 -55 -11 0 -6 7 -9
15 -5 8 3 15 1 15 -4 0 -6 -5 -10 -11 -10 -5 0 -8 -4 -5 -8 3 -5 -8 -6 -24 -4
-25 4 -33 -1 -47 -27 -16 -27 -23 -31 -55 -28 -41 2 -45 6 -26 25 9 9 8 12 -6
12 -33 0 -10 25 32 34 37 9 42 13 42 38 0 35 -13 36 -28 3 -6 -14 -17 -25 -24
-26 -40 -2 -59 -7 -65 -14 -5 -4 1 -5 11 -1 16 5 17 4 6 -9 -7 -8 -19 -15 -26
-15 -9 0 -14 -11 -14 -27 0 -21 -3 -24 -9 -14 -5 8 -7 20 -4 28 3 9 -3 13 -20
13 -20 0 -24 -4 -20 -19 3 -10 0 -22 -6 -25 -8 -5 -8 -13 0 -28 7 -13 7 -18 1
-14 -6 3 -13 2 -16 -3 -4 -5 3 -12 14 -16 20 -6 28 -25 10 -25 -5 0 -6 -7 -3
-17 4 -11 3 -14 -5 -9 -12 7 -18 -10 -26 -83 -2 -25 -2 -41 2 -35 9 12 35 17
28 5 -4 -5 6 -14 21 -20 l28 -11 -27 4 c-26 3 -28 0 -28 -30 0 -18 5 -36 10
-39 6 -3 10 -11 10 -17 0 -6 -6 -5 -16 3 -12 10 -17 10 -23 1 -4 -7 -16 -10
-27 -7 -17 6 -18 6 -1 -5 9 -6 17 -19 17 -30 0 -10 6 -21 13 -23 9 -4 8 -8 -3
-16 -12 -9 -11 -11 8 -11 12 0 22 -4 22 -10 0 -20 -74 -40 -159 -42 -52 -1
-67 -3 -38 -5 49 -4 57 -12 32 -33 -25 -21 -5 -32 54 -29 31 1 67 1 81 0 44
-3 -1 -20 -59 -22 -29 -1 -55 -7 -58 -12 -4 -6 8 -8 33 -4 21 3 64 9 94 12
l55 6 -45 -16 c-25 -9 -56 -21 -69 -28 -24 -12 -23 -12 15 -23 l39 -11 -32 -7
c-50 -11 -48 -23 4 -31 l46 -7 -28 -26 -28 -26 22 -14 c20 -14 21 -16 5 -33
-16 -18 -16 -19 2 -21 10 -1 26 -2 34 -4 8 -1 33 -3 55 -4 39 -3 39 -3 -15
-12 -86 -15 -85 -15 -66 -43 12 -19 13 -25 4 -26 -7 -1 5 -5 27 -9 31 -5 1800
-6 1955 -1 l35 2 -29 15 c-21 12 -30 13 -36 4 -5 -7 -24 -10 -54 -7 -32 4 -44
2 -40 -5 4 -7 2 -8 -5 -4 -6 4 -8 13 -4 19 4 7 0 6 -10 -2 -14 -11 -23 -11
-57 3 -47 19 -50 19 -50 6 0 -5 12 -10 27 -10 51 0 14 -12 -49 -15 -45 -3 -54
-1 -33 5 29 7 28 8 -12 9 -23 0 -45 -3 -48 -9 -3 -5 -13 -10 -21 -10 -8 0 -13
4 -10 8 5 9 -111 41 -155 43 -13 1 -4 5 21 10 59 12 55 12 135 0 122 -19 139
-21 129 -11 -5 5 -49 14 -99 20 -91 11 -135 26 -67 23 82 -3 112 -7 112 -14 0
-8 8 -9 90 -9 30 1 64 3 74 7 14 4 18 1 13 -10 -8 -22 10 -34 63 -41 38 -5 41
-4 20 5 -46 20 -54 25 -58 39 -3 8 0 10 7 5 7 -4 27 -9 44 -11 18 -3 56 -9 86
-14 67 -12 71 -12 71 -1 0 5 -28 19 -62 30 -48 16 -55 20 -28 17 19 -1 47 1
61 6 15 5 35 5 50 -1 22 -9 20 -10 -16 -11 -38 -2 -39 -2 -12 -10 16 -5 61
-10 100 -11 40 -1 90 -6 112 -12 38 -9 39 -10 15 -18 -14 -4 -42 -10 -62 -14
-21 -3 -38 -11 -38 -17 0 -6 9 -8 20 -5 11 3 18 2 15 -2 -2 -4 46 -7 108 -7
75 0 97 2 67 7 l-45 6 40 2 c36 3 37 4 15 11 -14 4 -41 9 -60 10 l-35 2 40 10
c38 9 223 4 233 -7 3 -3 -6 -5 -19 -5 -13 0 -31 -5 -39 -11 -11 -7 -4 -8 25
-3 22 4 41 10 43 14 3 8 133 2 141 -6 2 -2 -21 -4 -52 -4 -46 0 -55 -3 -51
-15 8 -20 200 -21 226 -1 10 7 31 11 50 8 32 -5 32 -6 8 -13 l-25 -7 27 -1
c15 -1 30 3 33 9 3 5 26 9 50 8 24 -1 41 -6 39 -10 -3 -4 0 -8 5 -8 6 0 11 5
11 10 0 6 7 10 15 10 8 0 15 -4 15 -9 0 -6 156 -10 400 -10 243 1 398 4 394
10 -3 5 -10 7 -15 4 -5 -4 -9 -1 -9 4 0 15 13 14 46 -4 21 -11 62 -15 147 -15
l117 0 0 70 c0 56 -3 70 -15 70 -8 0 -15 5 -15 10 0 6 7 10 15 10 11 0 15 12
15 50 0 45 -3 52 -26 60 -14 6 -22 14 -19 20 3 5 -1 10 -9 10 -9 0 -16 -3 -16
-8 0 -4 -24 -6 -54 -5 -30 2 -57 -1 -61 -7 -9 -15 -25 -12 -19 4 3 9 -3 13
-23 13 -15 -1 -43 2 -60 5 -18 4 -33 2 -33 -3 0 -5 -9 -9 -21 -9 -11 0 -18 4
-14 9 3 5 -3 12 -12 15 -10 3 41 3 112 1 79 -2 117 -1 98 4 -50 13 -220 14
-228 1 -7 -12 -65 -14 -65 -1 0 4 -28 7 -62 6 -52 -1 -63 -4 -63 -18 0 -20 -3
-21 -35 -8 -17 7 -20 10 -7 10 34 2 16 21 -20 22 -154 3 -255 12 -299 24 -32
9 -77 13 -120 10 -38 -2 -75 -4 -82 -4 -7 -1 -10 -6 -7 -11 4 -6 10 -8 14 -5
5 2 31 -7 60 -20 28 -14 62 -25 75 -25 14 0 27 -4 30 -8 2 -4 -8 -7 -22 -6
-15 0 -47 2 -70 2 -35 2 -45 6 -49 22 -3 11 -10 20 -17 21 -21 1 -81 2 -99 0
-28 -2 -9 -21 21 -21 19 0 23 -3 14 -9 -8 -4 -34 -4 -59 0 -49 10 -68 19 -38
19 14 0 16 3 7 12 -8 8 -15 8 -24 0 -9 -7 -18 -6 -32 4 -24 17 -56 18 -56 2 0
-10 -3 -9 -9 1 -14 21 -93 25 -173 8 -40 -9 -118 -19 -173 -23 -55 -3 -113 -7
-130 -9 -16 -2 -34 3 -40 10 -5 7 -35 16 -65 19 -38 5 -50 3 -40 -4 8 -5 32
-10 52 -10 35 0 57 -14 43 -28 -3 -3 -10 0 -15 8 -7 10 -10 11 -10 3 0 -10
-24 -13 -87 -13 -54 0 -83 4 -74 9 11 7 10 10 -5 14 -23 7 -88 15 -164 21 -30
3 -79 8 -109 12 l-54 7 39 34 c90 80 138 113 177 124 23 6 47 15 53 20 6 5 19
7 28 3 9 -3 16 -2 16 4 0 12 -24 22 -53 22 -18 0 -22 7 -24 35 -3 36 5 43 25
23 17 -17 16 11 -2 35 -10 13 -28 17 -70 17 -85 0 -69 23 20 30 l69 6 -58 4
-59 5 -3 83 c-2 79 -1 84 21 94 35 16 29 28 -12 28 -30 0 -37 4 -49 34 -8 19
-17 53 -21 75 -6 37 -5 41 12 35 19 -5 19 -5 0 10 -19 15 -19 45 0 114 6 22 5
23 -28 17 -20 -4 -60 0 -94 8 -89 23 -248 46 -349 51 -49 3 -91 10 -93 16 -2
5 -20 10 -40 9 -29 0 -33 -2 -17 -8 11 -5 26 -6 33 -4 6 3 12 1 12 -4 0 -5
-19 -10 -42 -11 -111 -5 -193 -15 -303 -38 -66 -14 -136 -27 -155 -29 -54 -6
-157 -23 -245 -39 -99 -19 -137 -20 -115 -5 12 9 11 10 -6 6 -12 -2 -21 1 -21
8 0 7 6 11 12 8 18 -6 27 25 15 48 -6 11 -21 19 -36 19 -14 0 -22 4 -19 10 3
6 0 10 -8 10 -20 0 -17 -82 3 -88 12 -4 13 -2 3 9 -7 7 -13 20 -13 28 0 23 18
0 24 -30 4 -25 2 -27 -40 -27 l-44 -1 1 48 c1 26 -1 53 -5 59 -3 5 -1 12 4 14
13 4 -17 68 -32 68 -7 0 -7 4 1 13 6 8 7 18 3 22 -4 5 -2 5 5 1 7 -4 10 -14 7
-24 -2 -9 3 -2 11 16 15 33 13 72 -5 72 -11 0 -21 -30 -15 -41 4 -5 0 -6 -7
-4 -15 6 -19 45 -5 45 5 0 6 14 2 30 -5 22 -3 30 5 28 7 -2 14 2 16 7 5 14
-46 14 -74 0z m18 -65 c0 -5 -5 -10 -11 -10 -5 0 -7 5 -4 10 3 6 8 10 11 10 2
0 4 -4 4 -10z m-10 -180 c-11 -7 -8 -10 13 -10 15 0 27 -5 27 -11 0 -5 -4 -8
-8 -5 -5 3 -9 -1 -9 -9 0 -8 4 -12 9 -9 4 3 8 0 8 -5 0 -6 -13 -11 -30 -11
-32 0 -37 8 -17 29 6 7 8 12 2 11 -24 -5 -27 1 -10 20 10 11 21 18 24 15 3 -4
-1 -10 -9 -15z m200 -58 c0 -15 -2 -15 -10 -2 -13 20 -13 33 0 25 6 -3 10 -14
10 -23z m1419 -48 c-5 -21 -15 -51 -21 -66 -10 -27 -10 -27 -27 -7 -18 22 -51
17 -51 -7 0 -8 -5 -14 -11 -14 -6 0 -9 7 -5 15 3 9 0 15 -8 15 -8 0 -17 12
-20 26 -6 21 -9 24 -21 14 -12 -10 -15 -9 -15 3 0 8 9 17 20 20 11 3 18 1 14
-4 -3 -5 0 -9 5 -9 6 0 11 4 11 9 0 4 27 14 60 21 33 7 63 17 66 22 12 19 13
1 3 -38z m-1606 16 c4 0 6 4 3 8 -3 5 1 9 9 9 8 0 15 -7 15 -14 0 -8 -4 -12
-9 -9 -5 4 -11 1 -13 -5 -2 -6 -12 0 -23 13 -11 13 -13 17 -5 11 8 -7 18 -13
23 -13z m1354 -22 c-3 -8 -6 -5 -6 6 -1 11 2 17 5 13 3 -3 4 -12 1 -19z m-607
-32 c0 -14 -4 -27 -9 -30 -4 -3 -6 6 -3 19 3 20 1 24 -11 19 -9 -3 -13 -12
-10 -21 4 -10 2 -14 -4 -10 -6 4 -13 16 -16 27 -4 17 0 20 24 20 24 0 29 -4
29 -24z m116 10 c11 -11 11 -16 1 -19 -9 -4 -9 -7 0 -14 9 -6 4 -14 -17 -26
-32 -19 -37 -15 -45 37 -6 34 -5 36 20 36 15 0 33 -6 41 -14z m111 -2 c-3 -3
-12 -4 -19 -1 -8 3 -5 6 6 6 11 1 17 -2 13 -5z m433 -14 c0 -11 -2 -20 -4 -20
-2 0 -6 9 -9 20 -3 11 -1 20 4 20 5 0 9 -9 9 -20z m-1190 0 c0 -5 -2 -10 -4
-10 -3 0 -8 5 -11 10 -3 6 -1 10 4 10 6 0 11 -4 11 -10z m94 -73 c-5 -22 -8
-26 -15 -16 -11 17 -12 73 -2 83 12 12 24 -36 17 -67z m803 43 c0 -16 -4 -30
-9 -30 -4 0 -8 14 -8 30 0 17 4 30 8 30 5 0 9 -13 9 -30z m-755 -44 c-5 -19
-6 -19 -13 1 -4 12 -5 32 -1 45 l6 23 6 -25 c4 -14 4 -34 2 -44z m803 -83 c14
0 25 4 25 9 0 5 4 7 9 3 5 -3 35 -7 65 -9 l56 -4 19 38 c13 28 15 42 8 49 -8
8 -8 11 0 11 7 0 15 -5 18 -10 4 -6 10 -8 15 -5 5 3 3 -7 -5 -22 -19 -36 -19
-53 0 -53 18 0 34 36 29 63 -1 9 2 17 8 17 9 0 9 -13 -4 -71 -2 -11 11 -14 62
-15 36 -1 56 0 45 2 -11 3 -30 7 -42 10 -19 4 -23 11 -23 44 0 39 1 40 36 40
23 0 42 6 50 18 13 16 13 16 14 0 0 -10 7 -18 15 -18 12 0 12 -5 0 -41 -8 -23
-15 -53 -15 -68 l1 -26 13 24 c18 32 24 18 37 -80 5 -46 12 -86 15 -90 2 -4 0
-17 -4 -30 -9 -22 -9 -22 -32 8 -13 18 -28 29 -36 26 -15 -6 -16 -1 -16 67 l1
45 -13 -40 c-7 -22 -12 -50 -11 -62 1 -13 -1 -23 -5 -23 -4 0 -6 -11 -5 -25
l3 -25 -126 0 c-70 0 -151 -3 -179 -6 l-53 -6 -1 63 c-2 109 0 103 -44 109
l-40 5 62 14 c34 7 66 10 72 6 6 -3 14 1 17 9 4 11 20 16 51 16 25 0 42 -4 38
-9 -3 -5 -1 -12 5 -16 5 -3 10 -1 10 5 0 6 4 9 9 6 5 -3 7 -26 4 -51 -8 -76
36 -96 49 -22 3 15 2 30 -2 32 -10 6 -1 43 13 52 5 3 7 1 3 -5 -3 -6 -2 -13 3
-16 5 -4 12 -2 16 3 3 6 32 9 65 7 46 -2 60 0 60 11 0 11 -52 13 -317 9 -175
-3 -331 -7 -348 -10 -49 -9 -282 -26 -333 -25 -47 1 -47 1 -12 9 19 5 94 13
165 19 214 19 227 22 181 42 -14 7 -26 19 -27 28 0 11 -3 9 -9 -5 -5 -12 -14
-25 -20 -29 -17 -10 -59 14 -58 34 1 9 -2 25 -5 37 -6 18 -3 20 30 20 21 -1
44 -5 52 -10 9 -6 12 -5 7 2 -8 13 25 25 47 17 8 -4 18 -2 21 3 8 13 89 3 98
-12 4 -6 8 -21 8 -33 0 -13 5 -23 10 -23 6 0 10 -4 10 -10 0 -5 -11 -10 -25
-10 -15 0 -25 -6 -25 -15 0 -10 10 -13 38 -11 20 2 54 4 75 5 27 1 37 5 37 17
0 11 -6 15 -19 11 -14 -3 -17 0 -14 14 3 10 9 17 13 14 10 -6 19 18 22 53 1
15 3 -3 5 -39 4 -63 5 -66 28 -66z m195 117 c0 -5 -4 -10 -10 -10 -5 0 -10 5
-10 10 0 6 5 10 10 10 6 0 10 -4 10 -10z m-670 -79 c0 -36 -17 -53 -42 -40
-25 13 -23 43 5 62 28 19 37 13 37 -22z m-520 -71 c0 -5 -2 -10 -4 -10 -3 0
-8 5 -11 10 -3 6 -1 10 4 10 6 0 11 -4 11 -10z m-240 -41 c0 -6 -4 -7 -10 -4
-5 3 -10 11 -10 16 0 6 5 7 10 4 6 -3 10 -11 10 -16z m220 9 c0 -4 -12 -8 -26
-8 -14 0 -23 4 -19 9 6 11 45 10 45 -1z m25 2 c3 -5 1 -10 -4 -10 -6 0 -11 5
-11 10 0 6 2 10 4 10 3 0 8 -4 11 -10z m295 0 c0 -5 -16 -10 -36 -10 -21 0
-33 4 -29 10 3 6 19 10 36 10 16 0 29 -4 29 -10z m-570 -10 c0 -5 -9 -14 -20
-20 -17 -9 -20 -8 -20 10 0 13 7 20 20 20 11 0 20 -4 20 -10z m-36 -73 c-9 -5
-12 -17 -9 -35 5 -26 5 -26 -6 3 -9 22 -9 30 0 33 6 2 11 11 11 20 0 15 2 15
10 2 6 -10 5 -17 -6 -23z m886 -53 c0 -43 -4 -74 -10 -74 -6 0 -10 34 -10 81
0 51 4 78 10 74 6 -3 10 -40 10 -81z m201 72 c1 17 2 17 6 1 2 -9 9 -15 14
-11 6 4 9 -19 8 -60 -2 -65 -2 -66 -31 -66 l-28 0 0 78 c1 70 2 75 15 58 15
-20 15 -20 16 0z m-278 -74 c2 -54 0 -72 -10 -72 -9 0 -13 19 -13 68 0 59 6
89 16 79 2 -1 5 -35 7 -75z m176 -2 c1 -52 -1 -60 -16 -60 -15 0 -19 10 -21
56 -1 35 1 53 8 49 5 -3 10 1 10 10 0 9 4 14 8 11 5 -3 10 -32 11 -66z m-322
8 c-3 -8 -6 -5 -6 6 -1 11 2 17 5 13 3 -3 4 -12 1 -19z m1013 -40 c0 -5 -7 -8
-15 -8 -17 0 -18 2 -9 25 5 13 8 14 15 3 5 -7 9 -16 9 -20z m15 -28 c3 -5 5
-10 3 -10 -2 0 -77 -2 -168 -5 -134 -3 -150 -2 -86 5 43 5 84 11 90 13 26 9
155 7 161 -3z m-340 -10 c4 -6 -9 -10 -32 -9 -38 1 -38 1 -8 9 17 4 31 8 32 9
1 0 5 -3 8 -9z m-80 -10 c-3 -5 -18 -10 -33 -9 l-27 1 25 8 c35 11 42 11 35 0z
m-229 -39 c-16 -56 -53 -91 -96 -91 -26 0 -31 3 -20 10 12 8 10 10 -10 11 -14
1 -38 2 -53 3 -16 1 -31 -2 -34 -8 -4 -5 0 -6 8 -1 10 6 11 5 3 -4 -8 -9 -20
-9 -52 2 -23 8 -42 11 -42 6 0 -5 -14 -6 -32 -2 -22 4 -29 3 -24 -5 4 -7 1
-12 -8 -12 -9 0 -16 7 -16 15 0 17 -18 19 -40 5 -9 -6 -17 -5 -22 3 -5 8 -13
6 -27 -7 -11 -10 -28 -16 -38 -13 -15 4 -14 5 4 6 12 0 25 6 28 11 4 6 3 10
-2 9 -4 -1 -38 -1 -75 0 -53 1 -68 4 -68 16 0 8 -9 15 -20 15 -11 0 -20 5 -20
11 0 5 -4 8 -9 5 -5 -3 -11 3 -14 13 -3 11 1 22 8 25 7 2 102 5 211 6 109 0
200 3 203 5 2 3 64 5 137 5 l132 0 -12 -39z m-1051 -51 c3 -5 1 -10 -4 -10 -6
0 -11 5 -11 10 0 6 2 10 4 10 3 0 8 -4 11 -10z m448 -27 c-7 -2 -21 -2 -30 0
-10 3 -4 5 12 5 17 0 24 -2 18 -5z m62 -3 c3 -5 -1 -10 -9 -10 -8 0 -18 5 -21
10 -3 6 1 10 9 10 8 0 18 -4 21 -10z m1055 -156 c0 -14 -4 -23 -9 -20 -5 3 -7
15 -4 26 7 28 13 25 13 -6z m-1441 -12 c8 -16 5 -17 -32 -12 l-42 5 34 3 c26
3 31 6 20 13 -9 6 -10 9 -2 9 7 0 17 -8 22 -18z m401 14 c0 -3 -4 -8 -10 -11
-5 -3 -10 -1 -10 4 0 6 5 11 10 11 6 0 10 -2 10 -4z m-230 -25 c0 -4 -5 -12
-11 -18 -7 -7 5 -11 43 -12 29 -1 95 -3 145 -5 51 -1 96 -5 99 -9 4 -3 15 -2
26 4 25 13 52 4 44 -16 -3 -8 -1 -15 4 -15 6 0 10 -3 10 -7 0 -5 -29 -8 -65
-8 -36 0 -65 3 -65 8 0 4 7 7 17 7 9 0 14 2 11 5 -3 3 -59 7 -124 10 -130 5
-174 12 -174 26 0 5 -11 9 -24 9 -17 0 -24 5 -23 18 1 14 9 16 44 13 24 -1 43
-6 43 -10z m55 9 c-28 -12 -45 -12 -45 0 0 6 15 10 33 9 27 0 29 -2 12 -9z
m-160 -10 c3 -5 1 -10 -4 -10 -6 0 -11 5 -11 10 0 6 2 10 4 10 3 0 8 -4 11
-10z m958 -37 c3 -5 -6 -9 -19 -9 -13 -1 -21 2 -18 7 6 11 31 12 37 2z m242
-3 c-3 -5 -13 -10 -21 -10 -8 0 -12 5 -9 10 3 6 13 10 21 10 8 0 12 -4 9 -10z
m-320 -10 c3 -6 -1 -7 -9 -4 -18 7 -21 14 -7 14 6 0 13 -4 16 -10z m628 -8
c12 6 22 6 30 0 15 -12 119 -34 150 -32 43 4 49 1 35 -13 -9 -11 -22 -12 -53
-4 -71 17 -88 17 -75 2 6 -8 17 -12 23 -10 7 3 23 -4 37 -15 14 -11 18 -18 10
-16 -43 12 -71 16 -67 9 3 -5 -3 -9 -14 -9 -10 0 -19 4 -19 9 0 14 -43 46 -62
47 -10 0 -18 4 -18 10 0 5 -8 6 -17 3 -11 -4 -13 -8 -5 -11 7 -2 10 -8 6 -13
-5 -9 10 -13 31 -9 6 1 7 -2 2 -6 -10 -11 23 -44 45 -44 10 0 18 -4 18 -10 0
-15 -74 -1 -89 18 -12 15 -12 15 -6 -5 6 -22 6 -22 -35 -8 -23 8 -46 12 -51 9
-5 -3 -9 0 -9 7 0 7 10 9 30 6 17 -4 30 -2 30 3 0 5 8 11 18 13 9 2 4 3 -11 1
-17 -2 -26 0 -22 6 4 6 -1 17 -9 26 -20 20 -21 35 -1 28 8 -4 17 1 21 10 5 14
9 14 33 2 19 -10 32 -11 44 -4z m-703 -2 c-12 -8 -12 -10 -1 -10 8 0 11 -7 8
-20 -3 -11 -1 -20 5 -20 5 0 6 -5 3 -11 -4 -5 -19 -7 -34 -4 -15 3 -40 1 -54
-4 -17 -7 -27 -7 -27 -1 0 6 -15 10 -32 10 -31 1 -32 1 -14 15 19 14 18 15
-11 15 -51 0 -46 15 5 16 26 1 67 6 92 12 25 5 52 10 60 11 13 1 13 0 0 -9z
m326 -12 c16 -1 35 -6 42 -11 8 -6 12 -6 12 2 0 6 8 11 18 11 10 0 24 6 31 13
10 10 16 7 32 -13 12 -14 18 -19 14 -12 -3 6 -1 12 4 12 6 0 11 -7 11 -15 0
-8 -7 -15 -16 -15 -10 0 -14 -5 -10 -15 4 -12 2 -13 -13 -6 -10 6 -21 8 -24 5
-3 -3 -11 -7 -19 -8 -28 -6 -48 -18 -42 -27 6 -11 1 -11 -20 -3 -15 6 -15 7 0
19 14 10 15 15 5 31 -8 12 -11 13 -8 3 5 -14 0 -14 -36 -5 -48 12 -61 25 -45
43 7 9 14 10 23 3 7 -5 25 -11 41 -12z m-1189 6 c-3 -3 -12 -4 -19 -1 -8 3 -5
6 6 6 11 1 17 -2 13 -5z m2663 -9 c18 -22 -1 -40 -26 -27 -11 5 -24 7 -31 5
-6 -2 -14 0 -17 5 -3 6 2 9 12 8 9 0 16 5 15 12 -4 17 32 15 47 -3z m430 -5
c-19 -3 -44 -4 -55 -1 -18 4 -17 5 5 11 14 3 38 4 55 1 l30 -5 -35 -6z m250 4
c0 -2 -11 -3 -24 -2 -14 1 -23 5 -20 9 4 7 44 0 44 -7z m110 -21 c0 -20 -24
-11 -28 10 -2 12 1 15 12 11 9 -3 16 -13 16 -21z m-3331 7 c-6 -5 -18 -6 -26
-3 -19 8 -16 11 13 11 17 0 22 -3 13 -8z m799 -11 c3 -12 2 -12 -6 0 -6 8 -15
10 -22 6 -9 -5 -11 -4 -6 4 10 15 28 10 34 -10z m2587 -1 c6 -4 -3 -8 -18 -8
-23 0 -26 2 -15 14 7 8 15 11 18 8 3 -4 10 -10 15 -14z m22 16 c-3 -3 -12 -4
-19 -1 -8 3 -5 6 6 6 11 1 17 -2 13 -5z m-3284 -20 c9 -4 17 -10 17 -14 0 -13
-38 0 -52 18 -11 13 -11 14 2 9 8 -4 23 -10 33 -13z m102 -11 c-2 -8 4 -13 15
-13 11 0 20 -5 20 -11 0 -6 -7 -8 -16 -5 -9 3 -27 6 -40 6 -14 0 -22 4 -19 10
3 6 -1 10 -9 10 -8 0 -17 4 -20 9 -3 5 12 8 34 7 28 0 39 -5 35 -13z m1524 -2
c18 -18 19 -18 35 0 20 24 58 24 73 0 10 -17 9 -19 -17 -23 -16 -3 -35 0 -41
6 -9 8 -10 7 -4 -2 6 -11 -4 -12 -51 -7 -74 9 -82 14 -52 30 32 18 35 18 57
-4z m439 13 c-12 -11 -70 -16 -63 -5 3 6 20 11 37 11 17 0 29 -3 26 -6z m55
-1 c-7 -2 -21 -2 -30 0 -10 3 -4 5 12 5 17 0 24 -2 18 -5z m-1908 -13 c8 -13
-5 -13 -25 0 -13 8 -13 10 2 10 9 0 20 -4 23 -10z m500 -1 c2 -3 -9 -6 -25 -7
-16 -1 -31 1 -33 5 -5 8 50 10 58 2z m2680 1 c3 -6 -1 -7 -9 -4 -18 7 -21 14
-7 14 6 0 13 -4 16 -10z m55 6 c0 -9 -30 -14 -35 -6 -4 6 3 10 14 10 12 0 21
-2 21 -4z m73 -3 c3 -5 -8 -8 -24 -9 -16 -1 -29 3 -29 7 0 11 47 12 53 2z
m-2583 -27 c0 -8 -9 -12 -22 -11 -34 4 -35 6 -8 15 14 4 26 8 28 9 1 1 2 -5 2
-13z m120 5 c3 -1 -1 -5 -9 -10 -15 -10 -41 -4 -41 9 0 6 30 7 50 1z m888 -6
c9 -2 32 -4 51 -4 49 -1 34 -10 -20 -12 -24 -1 -64 6 -89 14 l-45 16 43 -5
c23 -3 50 -7 60 -9z m392 5 c-20 -13 -43 -13 -35 0 3 6 16 10 28 10 18 0 19
-2 7 -10z m97 4 c-3 -3 -12 -4 -19 -1 -8 3 -5 6 6 6 11 1 17 -2 13 -5z m151
-1 c-16 -2 -40 -2 -55 0 -16 2 -3 4 27 4 30 0 43 -2 28 -4z m-2901 -9 c-3 -3
-12 -4 -19 -1 -8 3 -5 6 6 6 11 1 17 -2 13 -5z m613 -15 c0 -14 -47 -10 -53 4
-4 10 3 12 24 9 16 -2 29 -8 29 -13z m720 -9 c0 -5 -2 -10 -4 -10 -3 0 -8 5
-11 10 -3 6 -1 10 4 10 6 0 11 -4 11 -10z m1459 -6 c2 -2 -12 -4 -32 -4 -20 0
-39 5 -42 10 -6 9 64 4 74 -6z m133 -2 c9 -9 7 -12 -12 -12 -36 0 -71 11 -65
20 7 12 63 6 77 -8z m1058 14 c0 -2 -7 -7 -16 -10 -8 -3 -12 -2 -9 4 6 10 25
14 25 6z m-3470 -16 c0 -13 -11 -13 -30 0 -12 8 -11 10 8 10 12 0 22 -4 22
-10z m177 4 c-3 -3 -12 -4 -19 -1 -8 3 -5 6 6 6 11 1 17 -2 13 -5z m-541 -19
c13 -12 11 -14 -16 -12 -30 2 -36 8 -23 20 10 11 23 8 39 -8z m721 9 c-3 -3
-12 -4 -19 -1 -8 3 -5 6 6 6 11 1 17 -2 13 -5z m83 -4 c0 -5 -2 -10 -4 -10 -3
0 -8 5 -11 10 -3 6 -1 10 4 10 6 0 11 -4 11 -10z m90 0 c0 -5 -9 -10 -19 -10
-11 0 -27 -3 -36 -6 -13 -5 -14 -8 -3 -15 9 -6 9 -9 1 -9 -18 0 -24 16 -10 28
6 6 23 12 37 15 14 2 26 5 28 6 1 0 2 -3 2 -9z m2115 0 c8 -13 -15 -13 -35 0
-12 8 -11 10 7 10 12 0 25 -4 28 -10z m572 4 c-3 -3 -12 -4 -19 -1 -8 3 -5 6
6 6 11 1 17 -2 13 -5z m-2657 -19 c-7 -8 -18 -15 -24 -14 -7 0 -6 2 2 6 6 2
10 9 6 14 -3 5 2 9 12 9 13 0 14 -3 4 -15z m2050 -5 c0 -5 -5 -10 -11 -10 -5
0 -7 5 -4 10 3 6 8 10 11 10 2 0 4 -4 4 -10z m564 -5 c-18 -14 -17 -14 13 -15
17 0 34 5 36 10 3 6 4 5 3 -2 -1 -7 -18 -14 -37 -16 -18 -2 -37 -9 -41 -15 -6
-9 -10 -9 -16 1 -11 16 -67 21 -234 21 -71 1 -128 4 -128 9 0 4 51 7 113 7 61
0 141 2 177 6 36 3 80 7 99 7 33 2 34 1 15 -13z m-2786 -2 c-10 -2 -26 -2 -35
0 -10 3 -2 5 17 5 19 0 27 -2 18 -5z m236 -1 c2 -4 -10 -9 -27 -9 -26 -2 -28
0 -12 7 26 11 33 12 39 2z m231 -2 c3 -5 1 -10 -4 -10 -6 0 -11 5 -11 10 0 6
2 10 4 10 3 0 8 -4 11 -10z m1638 3 c-7 -2 -19 -2 -25 0 -7 3 -2 5 12 5 14 0
19 -2 13 -5z m792 -33 c4 0 5 6 2 13 -3 8 4 14 16 15 17 1 19 -1 7 -8 -17 -11
-14 -12 60 -12 46 0 50 -1 25 -8 -27 -7 -25 -8 18 -9 31 -1 46 -5 42 -11 -4
-6 -14 -9 -23 -6 -10 3 -44 6 -77 7 -48 1 -105 13 -123 24 -1 1 0 10 4 19 6
15 8 14 24 -4 9 -11 21 -20 25 -20z m-2513 23 c-6 -2 -10 -9 -6 -14 3 -5 -16
-10 -43 -10 -43 -1 -45 -2 -18 -9 17 -4 -6 -6 -55 -3 -47 3 -110 4 -142 3 -31
0 -59 4 -63 9 -4 7 5 9 26 4 17 -3 34 -1 38 4 4 6 36 7 86 2 53 -5 82 -4 86 3
4 6 19 7 37 3 18 -3 33 -2 37 4 3 6 12 11 18 10 9 0 8 -2 -1 -6z m272 -35 c-3
-5 -12 -1 -21 8 -15 14 -17 14 -25 0 -10 -18 -43 -22 -53 -6 -3 5 -13 6 -23 3
-14 -4 -13 -3 3 10 10 8 25 12 33 9 11 -4 11 -6 0 -13 -9 -6 -7 -9 10 -9 12 0
21 3 21 8 -4 27 3 30 30 14 16 -9 27 -20 25 -24z m-224 13 c0 -6 -4 -13 -10
-16 -5 -3 -10 1 -10 9 0 9 5 16 10 16 6 0 10 -4 10 -9z m400 -12 c0 -14 -26
-11 -39 5 -9 11 -6 12 14 8 14 -2 25 -8 25 -13z m-1520 7 c0 -2 -8 -10 -17
-17 -16 -13 -17 -12 -4 4 13 16 21 21 21 13z m1160 -5 c0 -5 -6 -13 -13 -19
-10 -8 -13 -6 -13 9 0 10 6 19 13 19 7 0 13 -4 13 -9z m2163 2 c-7 -2 -19 -2
-25 0 -7 3 -2 5 12 5 14 0 19 -2 13 -5z m54 -8 c0 -11 -4 -12 -14 -4 -7 6 -13
13 -13 15 0 2 6 4 13 4 8 0 14 -7 14 -15z m432 -6 c-12 -7 -12 -9 0 -9 8 0 12
-3 8 -6 -3 -3 -15 1 -27 9 -20 14 -21 15 -3 19 25 6 38 -2 22 -13z m-486 -15
c43 -13 54 -20 42 -27 -18 -10 -58 1 -50 14 4 5 0 9 -7 9 -7 1 -26 8 -43 16
-34 16 -25 14 58 -12z m234 13 c2 -3 -8 -4 -22 -4 -14 0 -28 4 -31 9 -5 8 44
4 53 -5z m-2084 -4 c-7 -2 -21 -2 -30 0 -10 3 -4 5 12 5 17 0 24 -2 18 -5z
m1244 -19 c-3 -3 -12 -4 -19 -1 -8 3 -5 6 6 6 11 1 17 -2 13 -5z m1053 -4 c0
-5 -10 -10 -22 -9 -22 0 -22 1 -3 9 11 5 21 9 23 9 1 1 2 -3 2 -9z m-685 -10
c3 -5 2 -10 -4 -10 -5 0 -13 5 -16 10 -3 6 -2 10 4 10 5 0 13 -4 16 -10z m635
-20 c18 -12 2 -12 -25 0 -13 6 -15 9 -5 9 8 0 22 -4 30 -9z m-3946 -15 c-8
-19 -14 -19 -14 0 0 8 4 15 10 15 5 0 7 -7 4 -15z m2813 9 c-3 -3 -12 -4 -19
-1 -8 3 -5 6 6 6 11 1 17 -2 13 -5z m719 -12 c-16 -2 -32 0 -37 5 -5 5 7 7 29
4 34 -5 35 -6 8 -9z m-3563 1 c-7 -2 -21 -2 -30 0 -10 3 -4 5 12 5 17 0 24 -2
18 -5z m1437 3 c0 -3 -4 -8 -10 -11 -5 -3 -10 -1 -10 4 0 6 5 11 10 11 6 0 10
-2 10 -4z m2206 -24 c-7 -7 -46 9 -46 18 0 5 11 4 25 -2 14 -6 23 -13 21 -16z
m-896 8 c0 -5 -7 -10 -15 -10 -8 0 -15 5 -15 10 0 6 7 10 15 10 8 0 15 -4 15
-10z m535 0 c3 -6 -1 -7 -9 -4 -18 7 -21 14 -7 14 6 0 13 -4 16 -10z"/>
<path d="M1432 1058 c-7 -7 -12 -21 -11 -32 0 -17 2 -16 11 7 5 15 14 24 20
21 7 -4 8 -2 4 4 -9 15 -9 15 -24 0z"/>
<path d="M1461 1025 c-2 -5 -3 -22 -3 -37 -1 -18 -5 -25 -14 -21 -8 3 -14 0
-14 -6 0 -6 13 -9 30 -8 32 4 54 17 27 17 -10 0 -17 11 -20 33 -2 17 -5 28 -6
22z"/>
<path d="M1702 841 c-10 -6 -10 -10 3 -21 8 -7 19 -9 23 -5 4 4 1 10 -6 12 -6
3 -10 9 -6 14 6 11 3 11 -14 0z"/>
<path d="M1766 834 c-5 -14 -4 -15 9 -4 17 14 19 20 6 20 -5 0 -12 -7 -15 -16z"/>
<path d="M1986 829 c14 -16 15 -22 5 -28 -8 -6 -9 -11 -3 -15 18 -11 25 33 8
49 -22 23 -32 18 -10 -6z"/>
<path d="M1693 793 c9 -2 23 -2 30 0 6 3 -1 5 -18 5 -16 0 -22 -2 -12 -5z"/>
<path d="M1770 776 c0 -2 7 -7 16 -10 8 -3 12 -2 9 4 -6 10 -25 14 -25 6z"/>
<path d="M770 650 c0 -5 5 -10 11 -10 5 0 7 5 4 10 -3 6 -8 10 -11 10 -2 0 -4
-4 -4 -10z"/>
<path d="M1017 608 c-9 -6 -8 -8 1 -8 7 0 11 -4 8 -9 -4 -5 10 -5 32 0 20 5
54 9 75 9 20 0 37 4 37 8 0 10 -137 10 -153 0z"/>
<path d="M70 1500 c0 -5 5 -10 11 -10 5 0 7 5 4 10 -3 6 -8 10 -11 10 -2 0 -4
-4 -4 -10z"/>
<path d="M200 1483 c0 -12 3 -13 13 -4 8 6 16 10 18 8 2 -1 3 0 1 2 -7 12 -32
7 -32 -6z"/>
<path d="M280 1490 c-8 -5 -17 -7 -21 -4 -4 2 -10 -5 -14 -16 -3 -11 -14 -20
-23 -21 -12 0 -11 -3 6 -9 24 -10 52 -4 52 12 0 5 -4 7 -9 3 -5 -3 -12 -1 -16
5 -6 10 7 14 32 11 14 -2 26 16 15 23 -4 2 -14 1 -22 -4z"/>
<path d="M1604 1478 c-4 -6 -3 -8 3 -5 6 4 13 1 16 -7 4 -10 -1 -12 -16 -8
-12 3 -19 2 -16 -1 3 -4 22 -9 42 -12 29 -5 36 -3 31 8 -8 21 -51 39 -60 25z"/>
<path d="M156 1465 c-3 -9 -11 -13 -18 -9 -9 4 -8 2 1 -7 10 -11 15 -11 18 -2
3 10 10 10 25 2 15 -8 19 -8 16 1 -2 6 -7 11 -12 10 -5 -1 -12 4 -16 10 -5 8
-9 7 -14 -5z"/>
<path d="M809 1467 c-7 -16 -4 -37 6 -41 9 -3 12 0 9 9 -3 7 2 15 13 17 15 3
15 5 -4 10 -13 3 -23 5 -24 5z"/>
<path d="M2227 1457 c2 -4 -6 -5 -20 -2 -14 4 -28 2 -31 -4 -4 -6 -29 -11 -57
-11 -35 0 -49 -4 -49 -14 0 -8 -7 -16 -15 -20 -10 -3 -15 1 -15 12 0 12 -14
22 -44 31 -50 14 -82 11 -78 -8 1 -7 -2 -10 -8 -6 -13 8 -42 -14 -34 -26 3 -5
-3 -6 -12 -2 -12 4 -15 3 -10 -5 4 -7 16 -12 27 -12 11 0 18 -4 15 -9 -4 -5 3
-7 13 -4 13 3 18 10 13 21 -5 15 -4 15 11 3 9 -7 17 -10 17 -5 0 5 18 10 40
11 45 2 45 -12 0 -22 -16 -4 -33 -11 -37 -17 -4 -8 0 -9 13 -3 10 5 36 9 56
10 20 0 40 4 44 8 4 4 22 7 40 7 19 0 51 9 72 20 38 20 38 20 77 0 22 -11 45
-20 52 -20 7 0 13 -6 13 -14 0 -16 45 -30 62 -20 7 5 8 2 3 -6 -6 -10 0 -11
29 -6 23 4 36 3 36 -4 0 -5 -3 -10 -7 -11 -5 0 -21 -2 -37 -4 -16 -2 -43 3
-60 12 -38 20 -70 25 -114 17 -32 -5 -33 -6 -17 -24 9 -10 23 -16 31 -13 8 3
14 0 14 -6 0 -19 22 -12 27 10 4 14 8 17 13 9 4 -7 23 -13 41 -15 19 -2 34 -4
34 -5 0 -8 49 -4 62 5 18 13 51 6 118 -27 25 -12 33 -13 21 -4 -10 8 -16 22
-13 30 5 14 -14 25 -70 41 -13 4 -24 17 -28 35 -4 20 -13 30 -25 30 -13 0 -17
-5 -14 -15 15 -37 -103 2 -133 44 -9 13 -23 19 -42 18 -16 -1 -27 -6 -24 -10z
m-67 -31 c0 -2 -9 -6 -20 -9 -11 -3 -20 -1 -20 4 0 5 9 9 20 9 11 0 20 -2 20
-4z"/>
<path d="M1220 1441 c0 -6 9 -9 20 -8 11 1 20 5 20 9 0 4 -9 8 -20 8 -11 0
-20 -4 -20 -9z"/>
<path d="M1590 1430 c-12 -7 -10 -9 7 -7 12 0 19 5 17 9 -6 10 -6 10 -24 -2z"/>
<path d="M366 1375 c-4 -12 -1 -16 11 -13 18 3 21 20 5 26 -5 1 -12 -4 -16
-13z"/>
<path d="M435 1359 c-11 -16 -1 -19 13 -3 7 8 8 14 3 14 -5 0 -13 -5 -16 -11z"/>
<path d="M1995 1350 c-3 -6 1 -7 9 -4 18 7 21 14 7 14 -6 0 -13 -4 -16 -10z"/>
<path d="M2166 1328 c3 -5 10 -6 15 -3 13 9 11 12 -6 12 -8 0 -12 -4 -9 -9z"/>
<path d="M2195 1320 c-3 -5 -1 -10 4 -10 6 0 11 5 11 10 0 6 -2 10 -4 10 -3 0
-8 -4 -11 -10z"/>
<path d="M2128 1313 c6 -2 18 -2 25 0 6 3 1 5 -13 5 -14 0 -19 -2 -12 -5z"/>
<path d="M2875 1310 l-60 -7 62 -1 c34 -1 65 3 68 8 3 6 3 9 -2 8 -4 -1 -35
-4 -68 -8z"/>
<path d="M681 1294 c0 -11 3 -14 6 -6 3 7 2 16 -1 19 -3 4 -6 -2 -5 -13z"/>
<path d="M1228 1293 c6 -2 18 -2 25 0 6 3 1 5 -13 5 -14 0 -19 -2 -12 -5z"/>
<path d="M514 1086 c-4 -9 -4 -20 0 -23 3 -4 12 -1 18 5 9 9 9 15 0 24 -9 9
-13 7 -18 -6z"/>
<path d="M570 1080 c0 -11 5 -20 10 -20 6 0 10 9 10 20 0 11 -4 20 -10 20 -5
0 -10 -9 -10 -20z"/>
<path d="M425 1050 c-3 -6 1 -7 9 -4 18 7 21 14 7 14 -6 0 -13 -4 -16 -10z"/>
<path d="M568 1015 c-2 -21 0 -35 7 -35 7 0 9 14 7 35 -2 19 -5 35 -7 35 -2 0
-5 -16 -7 -35z"/>
<path d="M485 1020 c-3 -5 -1 -10 4 -10 6 0 11 5 11 10 0 6 -2 10 -4 10 -3 0
-8 -4 -11 -10z"/>
<path d="M290 600 c0 -5 5 -10 10 -10 6 0 10 5 10 10 0 6 -4 10 -10 10 -5 0
-10 -4 -10 -10z"/>
<path d="M215 480 c-4 -6 7 -10 24 -10 17 0 31 5 31 10 0 6 -11 10 -24 10 -14
0 -28 -4 -31 -10z"/>
<path d="M2258 443 c7 -3 16 -2 19 1 4 3 -2 6 -13 5 -11 0 -14 -3 -6 -6z"/>
<path d="M2785 400 c29 -11 165 -27 165 -19 0 9 -74 22 -135 25 -32 1 -43 -1
-30 -6z"/>
<path d="M2128 393 c7 -3 16 -2 19 1 4 3 -2 6 -13 5 -11 0 -14 -3 -6 -6z"/>
<path d="M2975 380 c3 -5 13 -10 21 -10 8 0 14 5 14 10 0 6 -9 10 -21 10 -11
0 -17 -4 -14 -10z"/>
<path d="M3240 360 c25 -8 107 -13 99 -6 -2 2 -31 6 -64 9 -37 3 -51 2 -35 -3z"/>
<path d="M2241 356 c10 -8 129 -13 123 -5 -3 5 -33 9 -66 9 -34 0 -59 -2 -57
-4z"/>
<path d="M2430 350 c-9 -6 -10 -10 -3 -10 6 0 15 5 18 10 8 12 4 12 -15 0z"/>
<path d="M2418 313 c6 -2 18 -2 25 0 6 3 1 5 -13 5 -14 0 -19 -2 -12 -5z"/>
<path d="M2478 313 c7 -3 16 -2 19 1 4 3 -2 6 -13 5 -11 0 -14 -3 -6 -6z"/>
<path d="M1918 43 c7 -3 16 -2 19 1 4 3 -2 6 -13 5 -11 0 -14 -3 -6 -6z"/>
<path d="M2848 3 c12 -2 30 -2 40 0 9 3 -1 5 -23 4 -22 0 -30 -2 -17 -4z"/>
</g>
</svg>
