<?xml version="1.0" standalone="no"?>
<!DOCTYPE svg PUBLIC "-//W3C//DTD SVG 20010904//EN"
 "http://www.w3.org/TR/2001/REC-SVG-20010904/DTD/svg10.dtd">
<svg version="1.0" xmlns="http://www.w3.org/2000/svg"
 width="576.000000pt" height="480.000000pt" viewBox="0 0 576.000000 480.000000"
 preserveAspectRatio="xMidYMid meet">

<g transform="translate(0.000000,480.000000) scale(0.100000,-0.100000)"
fill="#000000" stroke="none">
<path d="M3440 4786 c0 -7 -10 -25 -21 -40 -17 -21 -19 -30 -10 -39 9 -9 12
-9 9 0 -2 6 2 11 7 12 23 2 7 -25 -22 -39 -18 -8 -31 -19 -30 -24 6 -18 23
-16 45 4 l22 21 0 -68 c0 -64 -2 -69 -27 -80 -15 -7 -36 -13 -47 -13 -10 0
-16 -3 -13 -6 3 -4 67 2 142 12 74 10 130 21 124 24 -6 4 -29 3 -52 -1 -90
-17 -94 -15 -102 46 -8 66 0 83 26 59 18 -16 19 -16 13 -1 -3 10 -1 17 5 17
17 0 13 30 -4 31 -8 1 -21 2 -27 3 -8 1 -14 20 -16 49 -2 26 -7 47 -13 47 -5
0 -9 -6 -9 -14z"/>
<path d="M3913 4611 c4 -17 -2 -21 -52 -27 -31 -4 -92 -13 -136 -20 l-80 -13
90 5 c50 4 120 12 158 19 37 7 67 10 68 6 1 -3 2 -15 3 -25 2 -37 25 -29 23 8
-1 22 -7 36 -15 36 -7 0 -20 7 -28 15 -21 21 -37 19 -31 -4z"/>
<path d="M3285 4512 c-3 -3 -16 -7 -28 -9 -12 -2 -65 -10 -118 -18 -123 -19
-140 -19 -133 0 9 22 -13 18 -33 -5 -10 -11 -23 -20 -30 -20 -7 0 -13 -4 -13
-10 0 -5 5 -10 10 -10 6 0 10 -9 10 -19 0 -11 4 -22 9 -26 15 -8 25 15 12 28
-20 20 -11 25 62 32 39 4 91 11 114 16 23 5 61 11 85 14 24 3 56 9 73 13 27 8
28 9 8 14 -12 3 -24 3 -28 0z"/>
<path d="M3240 4440 c-6 -11 -8 -20 -6 -20 3 0 10 9 16 20 6 11 8 20 6 20 -3
0 -10 -9 -16 -20z"/>
<path d="M3144 4298 c-38 -57 -90 -134 -117 -171 -27 -38 -46 -71 -44 -73 3
-3 26 23 52 58 26 35 52 62 57 60 5 -1 7 2 3 8 -3 5 18 47 48 92 30 46 59 93
66 106 25 47 2 18 -65 -80z"/>
<path d="M3440 4385 c-30 -8 -62 -19 -71 -24 -10 -6 -20 -6 -25 -1 -6 6 -21 3
-38 -6 -21 -10 -31 -11 -36 -3 -5 6 -10 2 -13 -11 -4 -16 -11 -21 -22 -16 -9
3 -14 2 -11 -3 3 -5 -1 -14 -9 -21 -8 -7 -12 -17 -8 -23 4 -6 0 -8 -10 -4 -13
5 -26 -9 -31 -33 -4 -17 -19 -28 -31 -23 -11 4 -13 1 -8 -13 4 -12 3 -15 -5
-10 -7 4 -12 2 -12 -3 0 -13 27 -15 32 -3 5 13 93 51 170 72 40 11 74 20 77
20 2 0 0 -28 -3 -62 -4 -35 -4 -60 -1 -56 4 4 10 31 14 60 4 39 11 54 24 56
20 4 24 -37 5 -56 -10 -10 -10 -17 0 -32 7 -12 12 -57 12 -114 0 -96 -4 -106
-45 -106 -8 0 -25 -4 -40 -10 -25 -9 -25 -10 -9 -35 9 -14 14 -28 11 -31 -3
-3 -75 -14 -159 -25 -190 -23 -279 -36 -253 -38 11 0 84 6 162 14 78 8 165 13
194 10 44 -4 56 -2 74 15 l22 21 6 -23 c4 -12 2 -25 -3 -28 -5 -3 -39 -66 -75
-140 -163 -330 -154 -317 -160 -225 -1 15 -7 19 -24 17 -17 -1 -22 2 -18 12
11 27 19 86 13 86 -4 0 -11 -12 -16 -26 -7 -19 -15 -24 -29 -19 -12 4 -38 -9
-79 -40 -34 -26 -72 -47 -84 -49 -27 -3 -72 -20 -110 -42 -16 -8 -28 -12 -29
-7 -1 4 -2 17 -3 28 0 11 -9 21 -20 23 -16 3 -18 0 -12 -23 8 -31 -1 -65 -16
-65 -6 0 -26 14 -45 30 -18 17 -30 30 -26 30 4 0 8 10 9 23 0 12 4 42 9 67 4
25 8 52 9 62 3 22 100 180 135 217 16 17 26 32 24 35 -2 2 12 29 32 60 19 31
33 56 31 56 -3 0 -22 -26 -42 -57 -20 -32 -39 -60 -43 -63 -13 -11 -221 -330
-221 -340 0 -16 -17 -12 -42 9 -61 51 -123 102 -201 166 -83 68 -109 100 -113
139 -2 26 -33 47 -64 44 -19 -2 -26 -10 -28 -33 -2 -17 2 -33 11 -40 35 -25
32 -49 -48 -395 -58 -249 -104 -473 -96 -464 14 17 171 721 171 768 0 43 28 7
97 -124 198 -376 206 -393 194 -409 -28 -40 -89 -182 -105 -246 -19 -77 -66
-358 -61 -363 2 -2 24 26 50 63 44 61 80 93 92 82 3 -3 -2 -40 -11 -82 -9 -43
-16 -81 -16 -86 0 -5 40 32 89 83 87 91 89 92 132 90 24 -2 47 -6 51 -10 4 -4
8 -41 8 -82 2 -89 7 -110 26 -110 8 0 14 -4 14 -9 0 -5 -39 -12 -87 -16 -122
-9 -135 -14 -30 -12 85 2 114 -6 60 -17 -16 -3 -80 -8 -143 -12 -63 -4 -126
-8 -140 -9 -14 -2 -36 -4 -50 -4 -23 -2 -24 -3 -7 -15 9 -7 17 -18 17 -25 0
-19 17 -12 23 9 4 15 14 20 41 20 31 0 36 -3 36 -24 0 -22 -5 -24 -72 -31 -40
-4 -84 -9 -98 -10 -14 -2 -74 -6 -135 -10 -60 -4 -118 -9 -128 -11 -12 -2 -21
6 -27 21 -12 31 -34 32 -54 4 -8 -12 -19 -18 -25 -14 -6 3 -11 1 -11 -4 0 -6
-9 -11 -21 -11 -11 0 -18 -4 -15 -9 7 -11 56 -21 56 -11 0 4 19 8 43 7 51 0
295 12 393 19 40 3 74 2 77 -3 3 -4 -1 -69 -8 -143 -15 -160 -11 -332 10 -415
13 -51 84 -210 114 -254 7 -11 18 -5 52 28 43 41 59 50 59 31 0 -5 7 -10 15
-10 19 0 121 -50 165 -81 19 -13 37 -25 39 -26 2 -2 1 -6 -2 -9 -4 -4 -13 -1
-21 5 -12 10 -16 6 -25 -26 -6 -21 -11 -46 -11 -55 0 -22 -51 -49 -87 -47 -16
1 -36 -2 -45 -5 -12 -5 -22 0 -34 19 -9 14 -30 33 -46 41 -17 9 -27 18 -24 21
3 3 12 0 21 -7 9 -8 15 -8 15 -2 0 6 -5 14 -10 17 -6 4 -8 10 -5 14 7 12 -27
38 -47 38 -13 0 -15 -4 -8 -17 5 -10 7 -20 5 -22 -3 -3 1 -21 10 -41 24 -58
39 -175 24 -193 -9 -11 -9 -18 -1 -26 9 -9 15 -8 25 6 12 16 18 7 61 -81 27
-54 54 -105 61 -113 7 -8 16 -52 20 -97 l7 -81 -31 -16 c-40 -21 -53 -20 -86
6 -17 13 -26 16 -23 8 2 -8 16 -23 31 -34 23 -17 31 -18 64 -8 28 9 39 9 45 0
11 -20 -75 -37 -202 -42 -63 -2 -123 0 -132 5 -12 6 -29 5 -52 -5 -46 -19
-128 -18 -143 3 -10 14 -13 13 -31 -9 -11 -14 -24 -22 -28 -18 -4 4 -1 14 6
23 10 12 10 15 -2 15 -8 0 -18 -4 -24 -9 -12 -12 -124 -20 -130 -9 -3 4 -17 7
-32 7 -17 -1 -21 -3 -9 -6 9 -2 17 -9 17 -15 0 -6 -10 -8 -27 -3 -37 10 -139
12 -186 4 -20 -4 -40 -3 -43 2 -2 5 -18 6 -34 2 -22 -4 -30 -2 -30 8 -1 9 -8
6 -19 -8 -23 -27 -29 -29 -27 -7 1 12 -13 16 -61 20 -36 2 -64 0 -68 -6 -4 -7
-12 -7 -25 0 -13 7 -21 6 -30 -5 -10 -13 -16 -13 -41 0 -33 17 -49 19 -49 5 0
-5 9 -10 20 -10 11 0 20 -5 20 -11 0 -7 -10 -9 -25 -5 -14 4 -25 2 -25 -3 0
-5 -9 -9 -20 -8 -11 1 -20 5 -20 10 0 4 6 7 14 5 8 -2 15 2 15 7 1 13 -133 8
-137 -5 -2 -6 -8 -10 -14 -10 -6 0 -8 7 -4 15 3 8 1 15 -4 15 -6 0 -10 -4 -10
-9 0 -21 -32 -18 -75 5 -35 20 -45 22 -45 11 0 -22 -30 -30 -49 -13 -13 12
-21 12 -46 2 -16 -7 -37 -10 -45 -6 -20 10 -162 18 -147 8 7 -4 22 -8 35 -8
13 0 21 -4 18 -9 -4 -5 0 -12 6 -14 7 -3 -7 -6 -32 -6 -29 0 -40 2 -31 8 22
14 -25 24 -99 21 -117 -4 -184 -2 -235 8 -27 5 -59 6 -70 1 -16 -6 -17 -8 -3
-8 9 -1 20 -5 23 -11 3 -6 -1 -7 -9 -4 -9 3 -28 2 -43 -3 -30 -11 -101 6 -87
20 4 4 -7 7 -24 7 -22 0 -32 -5 -32 -15 0 -8 -7 -15 -15 -15 -8 0 -15 5 -15
11 0 6 -8 8 -19 4 -11 -3 -22 -1 -26 5 -10 16 -58 13 -52 -4 5 -12 0 -12 -26
-5 -57 16 -57 17 -57 -92 0 -98 1 -100 21 -94 15 5 19 4 15 -4 -4 -6 -14 -11
-22 -11 -12 0 -14 -37 -14 -235 l0 -235 2880 0 2880 0 0 349 0 349 -22 -1
c-13 -1 -36 2 -51 6 -19 5 -27 4 -22 -3 4 -6 -6 -10 -24 -10 -16 0 -33 5 -37
11 -4 8 -9 7 -16 -2 -7 -11 -11 -11 -15 -1 -7 17 -33 15 -33 -3 0 -11 -11 -15
-42 -15 -31 0 -39 3 -28 10 28 18 -1 24 -71 14 -43 -6 -73 -6 -76 -1 -3 5 -10
2 -15 -7 -5 -9 -17 -16 -26 -16 -15 1 -14 3 3 16 19 15 19 16 -10 10 -60 -12
-215 -16 -215 -6 0 6 -4 10 -10 10 -5 0 -10 -9 -10 -21 0 -11 -5 -17 -10 -14
-6 4 -8 11 -5 16 4 5 -10 9 -30 9 -22 0 -34 -4 -30 -10 10 -16 -12 -12 -29 5
-8 8 -21 15 -28 15 -10 0 -9 -3 2 -10 16 -10 15 -10 -65 -15 -38 -2 -187 19
-203 29 -7 4 -12 2 -12 -5 0 -15 -61 -4 -72 14 -4 6 -8 26 -8 44 0 18 -5 54
-10 80 l-11 48 -57 0 c-33 1 -71 8 -91 18 -19 9 -38 17 -43 17 -13 0 -158 71
-164 81 -8 14 1 11 63 -20 106 -53 237 -87 231 -60 -3 13 2 15 38 18 12 1 14
8 9 30 -3 17 -1 39 5 51 9 17 7 22 -15 30 -14 5 -25 12 -25 16 0 3 6 4 13 1
32 -12 37 8 16 69 -11 32 -25 64 -30 70 -5 6 -6 14 -2 17 3 4 2 7 -3 7 -5 0
-11 8 -12 18 -7 66 -16 99 -32 112 -17 14 -123 260 -116 268 2 2 52 -19 111
-47 60 -28 111 -51 116 -51 9 0 63 139 80 205 6 28 16 55 21 62 5 7 7 17 3 23
-3 5 -3 15 1 21 4 7 6 44 5 84 l-2 72 51 64 c28 35 56 71 64 80 7 8 45 21 84
28 40 7 72 17 72 22 0 12 -57 11 -65 -1 -3 -5 -18 -10 -33 -10 l-27 1 28 24
c18 16 40 25 63 25 19 0 34 4 34 10 0 5 -6 8 -12 6 -31 -10 -278 -15 -278 -7
0 5 12 12 28 14 25 4 25 4 -5 6 -29 1 -33 5 -38 39 -4 20 -13 72 -21 116 -19
108 -20 106 21 106 24 0 35 -5 35 -15 0 -19 20 -19 34 0 9 13 20 9 71 -23 33
-21 65 -41 72 -45 13 -8 -11 85 -51 192 -13 36 -48 132 -77 213 -49 135 -55
145 -61 115 -4 -17 -5 -41 -2 -52 4 -16 3 -17 -5 -5 -9 13 -11 13 -11 0 0 -9
7 -26 16 -38 26 -38 9 -35 -20 3 -30 39 -76 132 -76 155 -1 17 -58 189 -59
177 -1 -4 8 -40 20 -80 48 -168 69 -251 67 -259 -2 -5 -16 29 -31 74 -16 46
-35 99 -42 118 -36 93 -116 360 -111 368 3 6 -1 13 -9 16 -8 3 -14 9 -13 13 1
4 -3 17 -9 28 -6 11 -21 56 -33 100 -12 44 -27 85 -32 90 -8 7 -9 4 -5 -8 17
-47 39 -131 41 -155 1 -15 8 -38 16 -52 7 -14 23 -53 35 -87 18 -50 20 -72 14
-118 -7 -55 1 -104 24 -132 6 -9 6 -13 -1 -13 -6 0 -20 16 -32 36 -28 45 -35
39 -14 -12 9 -21 18 -48 19 -59 1 -11 3 -24 4 -28 0 -5 6 -5 13 -1 7 4 8 3 4
-5 -12 -19 3 -64 18 -58 10 4 12 0 9 -14 -3 -10 -7 -19 -10 -19 -2 0 -22 18
-44 40 -32 31 -39 35 -33 17 4 -12 18 -38 33 -57 25 -35 25 -35 1 -15 -13 11
-50 45 -83 75 -49 45 -65 55 -95 55 -32 0 -39 5 -57 37 -11 21 -33 47 -50 60
-16 12 -31 26 -33 30 -2 5 -9 8 -15 8 -7 0 10 -21 37 -46 54 -51 55 -71 1 -30
-19 15 -40 24 -45 21 -5 -3 -7 0 -4 8 3 9 -7 20 -28 31 -52 25 -69 42 -62 60
6 16 -3 20 -36 17 -12 -1 -12 0 -2 7 16 11 0 26 -39 35 -35 9 -79 45 -73 61 3
7 -4 24 -16 37 -19 22 -20 22 -18 4 3 -22 -8 -45 -21 -45 -5 0 -11 14 -14 30
-4 18 -13 30 -22 30 -8 0 -15 5 -15 10 0 6 -7 10 -15 10 -18 0 -48 28 -60 56
-7 17 -8 17 -12 2 -3 -10 -11 -18 -20 -18 -12 0 -14 7 -10 29 6 31 -22 69 -42
57 -20 -13 -38 32 -32 81 4 26 3 68 -1 93 -10 66 -9 112 1 105 6 -3 15 3 20
13 7 14 26 21 63 26 29 4 57 11 63 15 5 4 64 14 130 21 66 8 122 15 125 15 3
1 33 5 68 10 34 4 61 10 58 12 -3 3 -94 -4 -203 -16 -259 -28 -283 -30 -283
-20 0 4 13 10 29 14 25 5 27 9 18 28 -8 18 -17 21 -51 19 l-41 -3 -2 117 c-1
75 -5 120 -12 122 -6 2 -10 20 -10 40 l1 37 8 -30 8 -30 1 28 c2 40 18 33 25
-10 16 -89 28 -144 32 -140 2 2 -1 30 -6 63 -6 32 -12 71 -15 87 l-4 27 62 0
c58 0 101 -7 187 -30 l35 -9 2 -103 c1 -57 3 -120 3 -140 0 -21 4 -38 8 -38 5
0 6 61 4 135 l-5 135 39 -16 c22 -9 43 -20 48 -25 16 -15 21 -10 23 24 2 29 1
31 -12 13 -13 -18 -15 -18 -54 0 -22 11 -41 22 -41 27 0 11 14 9 28 -5 6 -6
15 -9 18 -5 10 9 -16 37 -33 37 -18 0 -146 60 -154 72 -5 7 -63 20 -154 33
-16 3 -55 -2 -85 -10z m83 -481 c1 -4 -6 -8 -15 -10 -21 -3 -23 7 -6 24 12 12
15 9 21 -14z m-83 -9 c0 -8 -4 -15 -9 -15 -13 0 -22 16 -14 24 11 11 23 6 23
-9z m69 -29 c-13 -11 -50 -26 -45 -18 3 6 0 13 -6 15 -7 3 2 6 21 6 19 1 32
-1 30 -3z m-1060 -286 c62 -52 130 -108 150 -123 20 -15 39 -31 43 -35 14 -14
-28 -145 -53 -164 -13 -10 -30 -23 -38 -29 -10 -9 -15 -8 -22 2 -5 8 -9 18 -9
22 0 5 -9 22 -21 38 -15 22 -17 29 -6 29 13 0 103 128 95 136 -3 2 -15 -14
-29 -36 -24 -40 -43 -50 -53 -27 -3 8 -11 5 -25 -11 l-20 -23 -81 160 c-44 89
-80 166 -80 172 0 14 1 13 149 -111z m226 -58 c-20 -96 -22 -98 -45 -77 -11
10 -20 21 -20 25 0 8 73 121 76 117 1 -1 -4 -30 -11 -65z m491 -154 c-19 -26
-20 -20 -5 19 6 15 13 22 16 16 2 -7 -3 -23 -11 -35z m-478 -30 c-39 -30 -43
-25 -32 31 l7 32 24 -23 24 -22 -23 -18z m457 53 c3 -5 1 -12 -5 -16 -5 -3
-10 1 -10 9 0 18 6 21 15 7z m283 -382 c2 -19 0 -31 -3 -27 -4 4 -15 0 -24 -9
-15 -16 -16 -14 -19 22 -2 24 2 41 10 46 22 14 33 4 36 -32z m189 35 c-3 -3
-12 -4 -19 -1 -8 3 -5 6 6 6 11 1 17 -2 13 -5z m-262 -31 c-4 -16 -9 -36 -9
-45 -4 -31 -16 -32 -16 -2 0 40 10 74 22 74 6 0 7 -11 3 -27z m-109 -9 c-3 -9
-6 -22 -6 -30 0 -22 -24 -17 -49 10 l-23 24 24 5 c49 9 60 8 54 -9z m-166 -45
c-14 -26 -4 -24 32 6 16 14 33 25 37 25 4 0 22 -13 41 -28 l34 -29 -14 -49
c-7 -27 -19 -56 -25 -64 -7 -8 -16 -25 -19 -37 -8 -27 -26 -31 -26 -6 0 9 -3
14 -6 10 -4 -3 -13 1 -21 9 -9 8 -22 13 -29 10 -8 -3 -11 0 -7 10 3 8 -1 21
-8 30 -11 14 -15 11 -26 -21 -7 -21 -30 -101 -50 -178 -21 -80 -45 -149 -55
-159 -10 -10 -14 -18 -8 -18 5 0 9 -18 8 -40 -1 -21 -5 -37 -9 -34 -16 9 -80
140 -89 181 -5 22 -10 83 -11 133 -1 82 -3 93 -20 97 -23 6 -15 23 10 23 30 0
44 -50 38 -135 -5 -74 0 -88 21 -62 7 8 7 18 2 27 -16 25 -11 49 23 123 74
162 79 169 127 187 51 20 65 17 50 -11z m1185 -7 c-7 -8 -45 20 -39 29 4 6 13
3 24 -8 9 -10 16 -19 15 -21z m98 -51 c9 -8 15 -16 12 -19 -2 -3 -11 0 -19 7
-8 6 -19 10 -26 9 -6 -2 -19 7 -27 20 -16 23 -16 23 13 11 16 -7 37 -19 47
-28z m161 -106 c24 -24 46 -55 49 -67 5 -18 -1 -14 -28 17 -83 95 -97 129 -21
50z m-1302 -4 c-5 -3 -14 -16 -21 -28 -6 -13 -18 -23 -26 -23 -23 0 -18 18 10
36 14 9 22 20 19 25 -3 5 2 6 11 2 9 -3 12 -9 7 -12z m-122 -66 c-10 -13 -15
-13 -21 -3 -5 7 -6 21 -3 31 3 9 1 17 -4 17 -13 0 -24 -29 -16 -43 5 -9 4 -9
-5 -1 -10 9 -10 17 -1 33 6 12 8 27 4 34 -4 6 8 -2 26 -20 29 -27 32 -34 20
-48z m834 68 c4 -4 21 -6 39 -5 31 3 32 2 35 -44 4 -68 -6 -104 -29 -104 -21
0 -26 -16 -7 -22 22 -8 -3 -28 -33 -26 -27 2 -29 5 -31 48 -4 92 -4 145 -1
153 5 9 18 9 27 0z m-121 -10 c3 -5 8 -48 11 -97 7 -101 1 -116 -51 -116 -31
0 -36 4 -55 48 -12 26 -21 55 -20 65 0 9 -3 17 -9 17 -5 0 -9 9 -9 20 0 11 5
19 12 18 6 -2 14 5 16 14 2 13 -1 16 -12 12 -9 -4 -16 -1 -16 6 0 8 9 11 25 8
14 -3 28 -1 31 3 6 11 71 12 77 2z m327 -9 c81 -12 223 -63 337 -121 89 -45
110 -60 101 -70 -8 -10 -6 -13 8 -12 32 3 54 -1 54 -9 0 -12 -242 -24 -253
-13 -5 5 22 12 69 16 102 8 121 12 62 14 -28 1 -48 6 -48 12 0 8 -4 8 -12 2
-21 -17 -51 -20 -98 -13 -29 5 -35 8 -18 9 15 0 29 5 32 9 3 5 -23 7 -57 6
-34 -2 -72 -3 -84 -3 -13 -1 -23 -5 -23 -9 0 -5 20 -7 44 -5 24 3 46 0 50 -5
9 -14 -163 -26 -194 -13 -21 8 -16 10 35 12 63 1 60 4 -18 14 -42 6 -48 9 -44
26 3 10 1 19 -4 19 -15 0 -27 34 -34 94 l-7 58 28 -5 c16 -3 49 -9 74 -13z
m-470 -15 c0 -11 -4 -17 -10 -14 -5 3 -10 13 -10 21 0 8 5 14 10 14 6 0 10 -9
10 -21z m-20 -21 c6 -18 15 -42 19 -53 4 -10 3 -33 -3 -50 -14 -40 -13 -40
-33 -24 -15 11 -15 10 1 -9 14 -16 17 -25 9 -33 -6 -6 -9 -18 -6 -25 6 -17
-19 -18 -35 -2 -9 9 -12 9 -12 -3 0 -8 5 -20 12 -27 9 -9 3 -12 -26 -12 l-39
0 7 77 c3 42 8 79 11 81 3 3 17 -5 33 -19 20 -18 19 -15 -5 12 -18 19 -33 40
-33 46 0 20 51 73 70 73 11 0 22 -12 30 -32z m-254 -114 c-41 -100 -41 -101
-22 -85 7 6 24 39 36 74 23 63 37 64 26 2 -9 -46 -51 -96 -79 -91 -11 1 -23 9
-25 16 -3 7 0 10 6 6 7 -4 9 3 6 20 -3 16 -1 23 6 19 6 -4 7 1 3 11 -4 12 -3
15 6 10 9 -6 10 -1 5 18 -4 16 -2 26 5 26 6 0 11 7 11 15 0 16 39 60 46 52 3
-3 -11 -44 -30 -93z m-252 62 c-3 -9 -10 -16 -15 -16 -6 0 -5 9 1 21 13 24 24
20 14 -5z m-74 -26 c13 -8 13 -10 -2 -10 -9 0 -20 5 -23 10 -8 13 5 13 25 0z
m45 0 c3 -5 1 -10 -4 -10 -6 0 -11 5 -11 10 0 6 2 10 4 10 3 0 8 -4 11 -10z
m230 -7 c-4 -10 -8 -22 -9 -28 -1 -5 -5 -16 -9 -22 -5 -7 -9 -30 -10 -52 l-1
-39 -66 -6 c-98 -9 -149 -11 -155 -4 -3 3 12 17 32 32 21 14 58 42 83 61 25
19 50 35 56 35 6 0 19 9 29 20 23 26 60 28 50 3z m-864 -46 c-10 -9 -11 -8 -5
6 3 10 9 15 12 12 3 -3 0 -11 -7 -18z m1526 -9 c-3 -8 -6 -5 -6 6 -1 11 2 17
5 13 3 -3 4 -12 1 -19z m-287 -36 c0 -7 -4 -10 -10 -7 -5 3 -10 16 -10 28 0
18 2 19 10 7 5 -8 10 -21 10 -28z m-260 -22 c0 -27 -4 -40 -12 -39 -7 1 -21
-1 -30 -5 -33 -15 -36 -1 -7 34 19 23 27 28 23 15 -4 -15 -3 -17 4 -6 6 8 8
20 5 28 -3 7 0 13 6 13 6 0 11 -18 11 -40z m1353 -52 c4 -14 -8 -5 -37 28 -24
27 -42 53 -39 57 7 12 69 -58 76 -85z m-543 52 c0 -6 -33 -9 -82 -9 -63 1 -75
3 -48 9 53 11 130 11 130 0z m287 -17 c-4 -3 -2 -12 5 -20 6 -8 16 -47 23 -86
9 -62 8 -80 -7 -132 -21 -71 -20 -65 -8 -65 6 0 10 9 10 20 0 11 4 20 9 20 14
0 26 -23 15 -27 -13 -4 -9 -176 5 -199 10 -18 10 -18 11 1 1 30 20 -3 20 -34
0 -20 -3 -22 -12 -13 -9 9 -14 5 -22 -21 -11 -33 -31 -41 -55 -23 -12 9 -13 2
-9 -44 l5 -54 -23 47 c-26 50 -40 62 -29 25 7 -23 7 -23 -9 -3 -16 19 -17 19
-11 -15 4 -22 3 -30 -3 -22 -5 7 -14 12 -20 10 -6 -2 -27 12 -46 30 -23 22
-36 28 -36 19 0 -8 6 -20 14 -26 17 -14 28 -51 15 -51 -5 0 -9 6 -10 13 0 13
-92 87 -108 87 -15 0 -26 -43 -12 -48 6 -2 11 -9 11 -15 0 -8 -4 -7 -12 1 -15
15 -48 16 -48 1 0 -6 -13 -1 -29 10 -15 11 -32 17 -36 13 -5 -4 -5 -1 -1 6 4
7 1 12 -7 12 -8 0 -17 6 -20 13 -2 7 -22 21 -43 32 -22 11 -50 31 -64 45 -33
34 -71 60 -88 60 -7 0 -10 -5 -6 -12 5 -8 2 -9 -10 -5 -10 4 -30 10 -44 13
-26 6 -26 6 -7 -10 19 -16 19 -16 -10 -10 -16 4 -38 11 -47 15 -24 13 -51 11
-42 -3 4 -7 3 -8 -4 -4 -17 10 -15 30 14 120 46 142 67 196 77 203 6 4 8 0 4
-11 -4 -9 -3 -15 1 -12 9 6 17 -2 84 -89 66 -86 204 -225 223 -225 3 0 -40 45
-95 101 -85 86 -190 221 -190 244 0 3 9 3 21 0 18 -6 20 -4 15 17 -3 12 -3 17
0 11 3 -7 14 -13 24 -13 10 0 20 6 23 13 3 9 8 9 21 -2 13 -11 22 -11 39 -3
12 6 35 13 50 17 16 3 32 15 37 28 5 12 9 18 9 14 1 -4 11 -3 22 4 15 8 19 8
15 0 -4 -6 -5 -11 -2 -11 2 0 12 -3 22 -7 11 -4 15 -3 10 5 -9 16 12 26 28 13
9 -8 22 -8 40 -1 17 6 26 6 26 0 0 -14 23 -8 37 10 11 13 12 13 7 -2 -5 -14 0
-16 28 -11 18 3 35 8 38 12 3 4 32 12 65 18 75 13 110 15 102 6z m-1367 -49
c-34 -7 -110 -9 -110 -2 0 5 28 7 63 7 34 -1 55 -3 47 -5z m-420 -24 c0 -5 -7
-10 -16 -10 -8 0 -12 5 -9 10 3 6 10 10 16 10 5 0 9 -4 9 -10z m888 -9 c11 -6
33 -12 49 -12 20 -1 15 -4 -17 -10 -64 -11 -130 -11 -130 1 0 6 7 10 15 10 8
0 12 6 9 13 -6 16 43 15 74 -2z m-347 -24 l-23 -22 17 28 c10 15 20 25 23 22
3 -3 -5 -16 -17 -28z m234 13 c3 -5 1 -10 -4 -10 -6 0 -11 5 -11 10 0 6 2 10
4 10 3 0 8 -4 11 -10z m-35 -16 c0 -2 -7 -4 -15 -4 -8 0 -15 4 -15 10 0 5 7 7
15 4 8 -4 15 -8 15 -10z m300 -35 c0 -6 -5 -7 -12 -3 -7 4 -8 3 -4 -4 4 -7
-32 -69 -81 -142 l-88 -131 -40 7 c-22 4 -48 8 -58 8 -14 0 -16 6 -11 36 4 27
3 32 -6 20 -12 -16 -12 -18 10 90 6 30 14 66 16 80 3 14 9 28 13 33 7 7 240
26 254 19 4 -2 7 -8 7 -13z m-1273 -5 c-3 -3 -12 -4 -19 -1 -8 3 -5 6 6 6 11
1 17 -2 13 -5z m988 -24 c-4 -16 -15 -46 -26 -67 l-20 -38 6 37 6 37 -30 -10
c-19 -7 -28 -15 -24 -25 3 -8 9 -11 14 -8 5 3 9 -6 9 -19 0 -14 -6 -27 -13
-30 -16 -6 -67 37 -67 56 0 18 34 57 50 57 7 0 10 7 7 14 -5 12 5 16 41 19 26
2 48 4 50 5 2 1 1 -11 -3 -28z m-289 -28 c-18 -16 -18 -16 -6 6 6 13 14 21 18
18 3 -4 -2 -14 -12 -24z m-262 -8 c3 -8 2 -12 -4 -9 -6 3 -10 10 -10 16 0 14
7 11 14 -7z m-405 -26 c-9 -17 -9 -23 0 -26 6 -2 8 -8 5 -14 -4 -6 1 -8 15 -3
18 5 21 2 21 -19 0 -26 -7 -30 -42 -27 -21 3 -24 -29 -7 -58 9 -13 9 -22 0
-37 -11 -18 -12 -18 -6 3 3 12 2 24 -3 26 -4 3 -7 -6 -6 -21 2 -40 3 -42 16
-42 6 0 8 3 5 7 -8 7 11 33 24 33 14 0 11 -17 -7 -34 -8 -9 -12 -22 -8 -28 4
-7 -7 1 -25 17 -46 42 -54 60 -36 79 17 16 21 66 5 66 -5 0 -10 -13 -10 -30 0
-37 -13 -39 -28 -5 -16 36 -15 45 6 38 14 -5 15 -3 5 8 -7 7 -13 30 -13 51 l0
38 50 0 c49 0 50 -1 39 -22z m1192 -79 c-42 -123 -39 -118 -68 -113 -14 3 -22
1 -19 -5 4 -5 1 -13 -5 -17 -7 -4 -9 -3 -5 4 3 5 2 12 -4 14 -6 2 20 49 56
106 37 57 68 101 70 99 2 -2 -9 -41 -25 -88z m-1156 71 c3 -5 -1 -10 -10 -10
-9 0 -13 5 -10 10 3 6 8 10 10 10 2 0 7 -4 10 -10z m409 -44 c15 -26 25 -50
22 -53 -4 -4 -56 92 -56 104 0 10 5 2 34 -51z m346 28 c0 -7 6 -15 13 -17 6
-3 2 -6 -9 -6 -12 -1 -25 6 -28 15 -3 8 -11 12 -17 8 -7 -4 -9 -3 -5 4 9 14
46 11 46 -4z m-222 -29 c-3 -3 -9 2 -12 12 -6 14 -5 15 5 6 7 -7 10 -15 7 -18z
m95 5 c-3 -11 -10 -23 -16 -27 -5 -3 -8 -2 -5 3 3 5 8 17 11 27 9 24 16 22 10
-3z m87 -11 c0 -5 -4 -9 -10 -9 -5 0 -10 7 -10 16 0 8 5 12 10 9 6 -3 10 -10
10 -16z m1405 -9 c-11 -5 -36 -9 -55 -9 -28 0 -31 2 -15 9 11 5 36 9 55 9 28
0 31 -2 15 -9z m-1532 -7 c-7 -2 -13 -9 -13 -15 0 -6 7 -8 15 -4 8 3 15 1 15
-3 0 -16 -28 -20 -34 -4 -7 18 1 33 17 32 9 0 9 -2 0 -6z m87 -3 c0 -5 -2 -10
-4 -10 -3 0 -8 5 -11 10 -3 6 -1 10 4 10 6 0 11 -4 11 -10z m-423 -42 c-3 -8
-6 -5 -6 6 -1 11 2 17 5 13 3 -3 4 -12 1 -19z m460 16 c-3 -3 -12 -4 -19 -1
-8 3 -5 6 6 6 11 1 17 -2 13 -5z m-692 -34 c18 0 18 -1 3 -16 -14 -14 -18 -13
-41 10 -27 27 -25 46 3 21 9 -8 25 -15 35 -15z m652 15 c0 -8 -4 -12 -9 -9 -5
3 -6 10 -3 15 9 13 12 11 12 -6z m-207 -39 c0 -12 -5 -7 -19 24 -11 24 -11 24
3 6 9 -11 16 -24 16 -30z m427 2 c-3 -8 -6 -5 -6 6 -1 11 2 17 5 13 3 -3 4
-12 1 -19z m-847 -18 c-6 -11 -12 -20 -14 -20 -2 0 -2 9 1 20 3 11 9 20 15 20
5 0 4 -9 -2 -20z m66 -15 c-9 -9 -16 -21 -16 -26 0 -5 -4 -9 -10 -9 -5 0 -10
11 -10 25 0 17 4 23 14 19 8 -3 17 0 21 6 4 6 9 9 12 6 3 -3 -2 -12 -11 -21z
m-206 -32 c0 -3 -9 2 -20 12 -11 10 -20 22 -20 27 0 4 9 -1 20 -12 11 -11 20
-23 20 -27z m580 37 c0 -5 -2 -10 -4 -10 -3 0 -8 5 -11 10 -3 6 -1 10 4 10 6
0 11 -4 11 -10z m-560 -60 c0 -23 -4 -24 -33 -8 -21 11 -21 11 -2 19 31 12 35
11 35 -11z m587 -12 c-3 -8 -6 -5 -6 6 -1 11 2 17 5 13 3 -3 4 -12 1 -19z
m-548 -22 c10 -12 8 -13 -8 -9 -12 3 -18 9 -15 14 7 12 10 11 23 -5z m146 -17
c7 -11 -32 -55 -41 -46 -9 9 9 37 25 37 14 0 14 2 1 10 -9 6 -10 10 -3 10 6 0
15 -5 18 -11z m482 -11 c-3 -8 -6 -5 -6 6 -1 11 2 17 5 13 3 -3 4 -12 1 -19z
m-642 -25 c1 -13 -2 -23 -7 -23 -4 0 -8 -11 -8 -24 0 -13 -7 -37 -16 -52 -15
-28 -15 -28 -9 30 4 33 9 65 12 73 9 22 -13 14 -24 -9 -6 -15 -12 -18 -17 -10
-4 7 -2 12 3 12 6 0 11 7 11 16 0 27 53 14 55 -13z m1758 -41 c29 -25 19 -35
-13 -12 -16 12 -30 26 -30 31 0 11 16 4 43 -19z m-1113 -28 c0 -8 -5 -12 -10
-9 -6 4 -8 11 -5 16 9 14 15 11 15 -7z m1090 -39 c11 -13 10 -14 -4 -9 -9 3
-16 10 -16 15 0 13 6 11 20 -6z m-1030 -93 c0 -7 -4 -10 -10 -7 -5 3 -10 16
-10 28 0 18 2 19 10 7 5 -8 10 -21 10 -28z m174 19 c3 -5 -9 -20 -27 -34 -17
-14 -49 -40 -69 -59 l-37 -35 -7 41 c-3 23 -11 49 -16 59 -5 9 -6 22 -3 27 8
12 152 13 159 1z m-744 -5 c0 -2 -8 -10 -17 -17 -16 -13 -17 -12 -4 4 13 16
21 21 21 13z m467 -38 c-3 -8 -6 -5 -6 6 -1 11 2 17 5 13 3 -3 4 -12 1 -19z
m318 -69 c5 -93 -3 -121 -29 -99 -9 7 -19 10 -23 7 -9 -9 -33 41 -33 69 0 15
-6 24 -15 24 -8 0 -15 4 -15 9 0 10 75 61 90 61 5 0 10 5 10 12 0 6 2 9 6 6 3
-3 7 -43 9 -89z m-418 52 c6 -9 14 -35 17 -57 6 -35 4 -42 -24 -69 -26 -25
-33 -27 -40 -15 -8 12 -10 9 -10 -11 0 -34 -10 -43 -26 -21 -11 15 -12 13 -11
-18 2 -30 -1 -35 -18 -32 -26 4 -225 103 -225 112 0 26 185 113 229 108 22 -3
27 -10 37 -53 9 -44 11 -47 16 -22 3 15 1 27 -3 27 -14 0 -10 68 4 73 19 6 42
-3 54 -22z m77 13 c3 -8 2 -12 -4 -9 -6 3 -10 10 -10 16 0 14 7 11 14 -7z
m428 -26 c-9 -9 -12 -7 -12 12 0 19 3 21 12 12 9 -9 9 -15 0 -24z m28 -8 c0
-5 15 -24 33 -42 45 -45 71 -111 55 -138 -10 -16 -20 -19 -48 -14 -82 13 -77
8 -79 80 -1 36 4 79 11 95 12 28 28 39 28 19z m248 -20 c35 -47 29 -70 -33
-117 -48 -38 -58 -41 -79 -32 -16 8 -30 27 -39 55 l-14 43 31 -1 c24 -1 38 8
66 40 19 23 38 41 41 42 3 0 15 -13 27 -30z m202 -47 c0 -32 3 -82 6 -110 5
-38 3 -53 -5 -53 -6 0 -14 8 -17 18 -7 23 -14 33 -48 76 -22 28 -26 39 -17 50
9 10 8 16 -4 26 -8 7 -12 17 -9 22 4 6 10 5 15 -3 6 -11 13 -9 29 9 36 39 50
29 50 -35z m286 -83 c21 -52 41 -97 44 -100 9 -7 50 -107 50 -121 0 -8 -4 -9
-13 -1 -7 6 -29 9 -48 6 -49 -7 -78 13 -111 76 -15 30 -28 58 -28 63 0 5 -13
38 -30 74 -16 35 -30 68 -30 73 0 5 13 11 29 15 16 3 37 14 47 25 18 17 20 17
35 1 9 -9 34 -59 55 -111z m-215 99 c56 -110 62 -129 46 -142 -8 -6 -21 -31
-27 -54 -29 -112 -62 10 -52 190 2 30 19 33 33 6z m-163 -84 c15 -32 16 -115
2 -115 -14 0 -18 14 -24 83 -5 61 3 73 22 32z m-1138 -25 c0 -5 -7 -7 -15 -4
-8 4 -15 8 -15 10 0 2 7 4 15 4 8 0 15 -4 15 -10z m254 -6 c11 -28 6 -39 -9
-20 -8 11 -15 23 -15 28 0 14 18 9 24 -8z m802 -20 c-3 -9 -6 -20 -6 -25 0 -4
-7 -6 -15 -3 -18 7 -20 30 -2 37 23 10 29 7 23 -9z m-851 -14 c3 -5 1 -10 -4
-10 -6 0 -11 5 -11 10 0 6 2 10 4 10 3 0 8 -4 11 -10z m22 -12 c-3 -8 -6 -5
-6 6 -1 11 2 17 5 13 3 -3 4 -12 1 -19z m67 -23 c3 -8 1 -15 -4 -15 -6 0 -10
7 -10 15 0 8 2 15 4 15 2 0 6 -7 10 -15z m1114 -60 c-2 -2 -12 -5 -23 -7 -15
-2 -19 2 -17 17 7 46 13 51 29 22 8 -16 13 -30 11 -32z m-1308 -5 c0 -5 -4
-10 -10 -10 -5 0 -10 5 -10 10 0 6 5 10 10 10 6 0 10 -4 10 -10z m1285 -50 c3
-5 -1 -10 -9 -10 -9 0 -16 5 -16 10 0 6 4 10 9 10 6 0 13 -4 16 -10z m-1373
-77 c-5 -10 -13 -43 -16 -74 -4 -32 -11 -70 -15 -85 -8 -29 -8 -28 -20 16 -6
25 -18 57 -26 72 -15 26 -14 27 27 56 50 35 62 39 50 15z m1225 1 c-3 -3 -12
-4 -19 -1 -8 3 -5 6 6 6 11 1 17 -2 13 -5z m393 -11 c0 -2 -7 -11 -15 -19 -13
-14 -15 -13 -15 10 0 18 4 24 15 20 8 -4 15 -8 15 -11z m-270 -13 c0 -5 -2
-10 -4 -10 -3 0 -8 5 -11 10 -3 6 -1 10 4 10 6 0 11 -4 11 -10z m140 -80 c8
-5 12 -11 9 -14 -3 -3 -14 1 -25 9 -21 16 -8 20 16 5z m158 -39 c5 -14 -96 -9
-124 7 -15 9 -3 10 51 8 40 -2 71 -8 73 -15z m-13 -52 c7 -7 -2 -9 -29 -7 -23
2 -41 9 -44 17 -4 11 3 13 29 7 18 -3 38 -11 44 -17z m-300 -40 c16 -16 -20
-10 -41 7 -18 14 -18 15 6 8 14 -3 29 -10 35 -15z m325 -49 c0 -5 -7 -10 -15
-10 -8 0 -15 5 -15 10 0 6 7 10 15 10 8 0 15 -4 15 -10z m-1687 -277 c-7 -2
-19 -2 -25 0 -7 3 -2 5 12 5 14 0 19 -2 13 -5z m2617 -17 c0 -2 -7 -6 -15 -10
-8 -3 -15 -1 -15 4 0 6 7 10 15 10 8 0 15 -2 15 -4z m-5165 -16 c3 -5 1 -10
-4 -10 -6 0 -11 5 -11 10 0 6 2 10 4 10 3 0 8 -4 11 -10z m652 4 c-3 -3 -12
-4 -19 -1 -8 3 -5 6 6 6 11 1 17 -2 13 -5z m-175 -20 c-12 -8 -28 -12 -34 -8
-9 6 -5 10 12 15 41 11 46 10 22 -7z m300 4 c-9 -9 -15 -9 -24 0 -9 9 -7 12
12 12 19 0 21 -3 12 -12z m1555 6 c-3 -3 -12 -4 -19 -1 -8 3 -5 6 6 6 11 1 17
-2 13 -5z m-807 -20 c0 -2 -12 -4 -27 -4 -21 0 -24 3 -14 9 13 8 41 5 41 -5z
m-1275 -5 c-21 -5 -43 -15 -47 -22 -5 -8 -8 -7 -8 5 0 18 19 26 65 26 26 0 25
-1 -10 -9z m1520 1 c3 -5 1 -10 -4 -10 -6 0 -11 5 -11 10 0 6 2 10 4 10 3 0 8
-4 11 -10z m-1385 -20 c0 -5 -2 -10 -4 -10 -3 0 -8 5 -11 10 -3 6 -1 10 4 10
6 0 11 -4 11 -10z m520 -20 c0 -5 -10 -10 -22 -9 -22 0 -22 1 -3 9 11 5 21 9
23 9 1 1 2 -3 2 -9z m525 -10 c-3 -5 -10 -10 -16 -10 -5 0 -9 5 -9 10 0 6 7
10 16 10 8 0 12 -4 9 -10z m-1248 -6 c-3 -3 -12 -4 -19 -1 -8 3 -5 6 6 6 11 1
17 -2 13 -5z m1340 -20 c-3 -3 -12 -4 -19 -1 -8 3 -5 6 6 6 11 1 17 -2 13 -5z
m1530 -29 c8 -9 13 -18 10 -21 -9 -9 -157 7 -157 17 0 5 13 6 29 3 16 -4 32
-1 35 5 10 16 65 13 83 -4z m113 -4 c0 -11 -59 -26 -67 -18 -3 3 -2 10 2 16 8
13 65 15 65 2z m-2393 -37 c-3 -3 -12 -4 -19 -1 -8 3 -5 6 6 6 11 1 17 -2 13
-5z m-890 -10 c-3 -3 -12 -4 -19 -1 -8 3 -5 6 6 6 11 1 17 -2 13 -5z m146 -61
c-7 -2 -19 -2 -25 0 -7 3 -2 5 12 5 14 0 19 -2 13 -5z m132 -33 c3 -6 -1 -7
-9 -4 -18 7 -21 14 -7 14 6 0 13 -4 16 -10z m-88 -16 c-3 -3 -12 -4 -19 -1 -8
3 -5 6 6 6 11 1 17 -2 13 -5z m2050 -10 c-3 -3 -12 -4 -19 -1 -8 3 -5 6 6 6
11 1 17 -2 13 -5z"/>
<path d="M3067 2898 c-9 -31 -2 -33 11 -3 6 14 8 25 3 25 -5 0 -11 -10 -14
-22z"/>
<path d="M3080 2740 c0 -5 5 -10 10 -10 6 0 10 5 10 10 0 6 -4 10 -10 10 -5 0
-10 -4 -10 -10z"/>
<path d="M4015 2070 c3 -5 8 -10 11 -10 2 0 4 5 4 10 0 6 -5 10 -11 10 -5 0
-7 -4 -4 -10z"/>
<path d="M4115 2060 c3 -5 8 -10 11 -10 2 0 4 5 4 10 0 6 -5 10 -11 10 -5 0
-7 -4 -4 -10z"/>
<path d="M4150 2040 c0 -5 5 -10 11 -10 5 0 7 5 4 10 -3 6 -8 10 -11 10 -2 0
-4 -4 -4 -10z"/>
<path d="M4197 2009 c7 -7 15 -10 18 -7 3 3 -2 9 -12 12 -14 6 -15 5 -6 -5z"/>
<path d="M4310 2010 c0 -6 7 -10 15 -10 8 0 15 2 15 4 0 2 -7 6 -15 10 -8 3
-15 1 -15 -4z"/>
<path d="M4128 1993 c12 -2 20 -8 18 -12 -3 -4 13 -18 34 -30 22 -12 40 -17
40 -11 0 6 -11 15 -25 20 -14 5 -28 17 -31 25 -4 9 -17 14 -33 14 -23 -2 -24
-2 -3 -6z"/>
<path d="M4220 1984 c0 -3 6 -12 14 -19 17 -17 30 -7 15 12 -12 13 -29 18 -29
7z"/>
<path d="M3478 2353 c7 -3 16 -2 19 1 4 3 -2 6 -13 5 -11 0 -14 -3 -6 -6z"/>
<path d="M2496 2282 c6 -4 16 -16 22 -27 11 -19 11 -18 12 8 0 21 -5 27 -22
27 -13 0 -18 -3 -12 -8z"/>
<path d="M2950 1637 c0 -14 4 -28 9 -32 6 -3 8 6 5 22 -7 37 -14 42 -14 10z"/>
<path d="M2960 1580 c0 -5 5 -10 11 -10 5 0 7 5 4 10 -3 6 -8 10 -11 10 -2 0
-4 -4 -4 -10z"/>
<path d="M4286 1545 c4 -8 8 -15 10 -15 2 0 4 7 4 15 0 8 -4 15 -10 15 -5 0
-7 -7 -4 -15z"/>
<path d="M3931 4342 c-1 -13 6 -37 15 -53 8 -17 13 -37 10 -45 -3 -9 -1 -12 4
-9 6 3 10 0 10 -8 0 -8 7 -20 15 -27 17 -14 19 -7 5 18 -5 9 -21 46 -34 82
-15 39 -25 56 -25 42z"/>
<path d="M3381 4124 c0 -11 3 -14 6 -6 3 7 2 16 -1 19 -3 4 -6 -2 -5 -13z"/>
<path d="M3860 4050 c0 -5 7 -10 15 -10 8 0 15 5 15 10 0 6 -7 10 -15 10 -8 0
-15 -4 -15 -10z"/>
<path d="M3751 4041 c-8 -5 -9 -11 -3 -15 5 -3 15 1 22 9 14 16 3 20 -19 6z"/>
<path d="M4190 4019 c0 -10 7 -19 15 -19 9 0 25 -9 37 -20 l22 -20 -25 -1
c-13 0 -33 -5 -44 -10 -16 -7 -13 -8 12 -5 38 6 48 -5 52 -51 1 -22 14 -8 17
20 1 12 6 34 9 50 7 24 5 27 -19 27 -14 0 -26 5 -26 11 0 6 9 8 20 4 11 -3 20
-2 20 3 0 10 -28 21 -67 27 -17 3 -23 -1 -23 -16z"/>
<path d="M2943 3998 c-15 -20 -25 -38 -20 -38 3 0 12 11 21 25 17 26 16 35 -1
13z"/>
<path d="M4168 3973 c12 -2 30 -2 40 0 9 3 -1 5 -23 4 -22 0 -30 -2 -17 -4z"/>
<path d="M4073 3963 c9 -2 25 -2 35 0 9 3 1 5 -18 5 -19 0 -27 -2 -17 -5z"/>
<path d="M4261 3815 c0 -22 6 -53 14 -70 13 -27 14 -28 10 -5 -1 14 -6 37 -10
53 -4 15 -4 27 -1 27 6 0 23 -36 47 -99 5 -13 12 -22 14 -19 8 7 -42 134 -50
130 -4 -2 -12 2 -16 10 -6 8 -9 -1 -8 -27z"/>
<path d="M4380 3511 c0 -5 5 -13 10 -16 6 -3 10 -2 10 4 0 5 -4 13 -10 16 -5
3 -10 2 -10 -4z"/>
<path d="M4400 3470 c0 -5 5 -10 10 -10 6 0 10 5 10 10 0 6 -4 10 -10 10 -5 0
-10 -4 -10 -10z"/>
<path d="M4458 3453 c-54 -4 -71 -14 -48 -28 6 -3 10 -1 10 4 0 7 23 11 54 11
30 0 58 5 61 10 3 6 0 9 -7 8 -7 -1 -39 -3 -70 -5z"/>
<path d="M4421 3394 c0 -11 3 -14 6 -6 3 7 2 16 -1 19 -3 4 -6 -2 -5 -13z"/>
<path d="M3834 3345 c8 -8 23 -15 33 -15 14 1 13 4 -7 15 -33 19 -45 19 -26 0z"/>
<path d="M4441 3330 c0 -8 4 -24 9 -35 5 -13 9 -14 9 -5 0 8 -4 24 -9 35 -5
13 -9 14 -9 5z"/>
<path d="M4542 3280 c0 -14 2 -19 5 -12 2 6 2 18 0 25 -3 6 -5 1 -5 -13z"/>
<path d="M4461 3260 c0 -8 4 -22 9 -30 12 -18 12 -2 0 25 -6 13 -9 15 -9 5z"/>
<path d="M4562 3215 c0 -5 6 -26 13 -45 7 -19 14 -28 14 -20 0 8 -6 29 -14 45
-7 17 -13 26 -13 20z"/>
<path d="M4087 3199 c7 -7 15 -10 18 -7 3 3 -2 9 -12 12 -14 6 -15 5 -6 -5z"/>
<path d="M4590 3103 c0 -5 7 -17 15 -27 15 -20 20 -10 9 18 -6 16 -24 22 -24
9z"/>
<path d="M2400 2475 c-10 -12 -10 -15 3 -15 8 0 20 7 27 15 10 12 10 15 -3 15
-8 0 -20 -7 -27 -15z"/>
<path d="M2315 2440 c-3 -5 -1 -10 4 -10 6 0 11 5 11 10 0 6 -2 10 -4 10 -3 0
-8 -4 -11 -10z"/>
<path d="M2360 2440 c-8 -5 -10 -10 -5 -10 6 0 17 5 25 10 8 5 11 10 5 10 -5
0 -17 -5 -25 -10z"/>
<path d="M2483 2443 c9 -2 23 -2 30 0 6 3 -1 5 -18 5 -16 0 -22 -2 -12 -5z"/>
<path d="M4755 2310 c3 -5 10 -10 16 -10 5 0 9 5 9 10 0 6 -7 10 -16 10 -8 0
-12 -4 -9 -10z"/>
<path d="M4953 2283 c9 -2 25 -2 35 0 9 3 1 5 -18 5 -19 0 -27 -2 -17 -5z"/>
<path d="M4733 2273 c9 -2 23 -2 30 0 6 3 -1 5 -18 5 -16 0 -22 -2 -12 -5z"/>
<path d="M4788 2273 c7 -3 16 -2 19 1 4 3 -2 6 -13 5 -11 0 -14 -3 -6 -6z"/>
<path d="M4485 930 c-3 -5 1 -10 10 -10 9 0 13 5 10 10 -3 6 -8 10 -10 10 -2
0 -7 -4 -10 -10z"/>
<path d="M2320 710 c0 -5 12 -10 28 -9 24 0 25 1 7 9 -27 12 -35 12 -35 0z"/>
<path d="M305 680 c3 -5 8 -10 11 -10 2 0 4 5 4 10 0 6 -5 10 -11 10 -5 0 -7
-4 -4 -10z"/>
</g>
</svg>
